<?xml version="1.0" encoding="UTF-8" standalone="no"?>
<svg
   xmlns:dc="http://purl.org/dc/elements/1.1/"
   xmlns:cc="http://creativecommons.org/ns#"
   xmlns:rdf="http://www.w3.org/1999/02/22-rdf-syntax-ns#"
   xmlns:svg="http://www.w3.org/2000/svg"
   xmlns="http://www.w3.org/2000/svg"
   xmlns:sodipodi="http://sodipodi.sourceforge.net/DTD/sodipodi-0.dtd"
   xmlns:inkscape="http://www.inkscape.org/namespaces/inkscape"
   version="1.1"
   width="720"
   height="450"
   id="svg3336"
   inkscape:version="0.91 r13725"
   sodipodi:docname="git-state-and-area.svg">
  <sodipodi:namedview
     pagecolor="#ffffff"
     bordercolor="#666666"
     borderopacity="1"
     objecttolerance="10"
     gridtolerance="10"
     guidetolerance="10"
     inkscape:pageopacity="0"
     inkscape:pageshadow="2"
     inkscape:window-width="1440"
     inkscape:window-height="848"
     id="namedview3385"
     showgrid="true"
     inkscape:zoom="1.9740064"
     inkscape:cx="433.17715"
     inkscape:cy="259.35257"
     inkscape:window-x="-8"
     inkscape:window-y="-8"
     inkscape:window-maximized="1"
     inkscape:current-layer="layer1"
     inkscape:snap-others="true"
     inkscape:object-paths="true"
     inkscape:snap-bbox="true"
     inkscape:bbox-paths="true"
     inkscape:bbox-nodes="true"
     inkscape:snap-object-midpoints="true">
    <inkscape:grid
       type="xygrid"
       id="grid4641"
       spacingx="10"
       spacingy="10" />
  </sodipodi:namedview>
  <metadata
     id="metadata3389">
    <rdf:RDF>
      <cc:Work
         rdf:about="">
        <dc:format>image/svg+xml</dc:format>
        <dc:type
           rdf:resource="http://purl.org/dc/dcmitype/StillImage" />
        <dc:title></dc:title>
      </cc:Work>
    </rdf:RDF>
  </metadata>
  <defs
     id="defs3387">
    <marker
       inkscape:isstock="true"
       style="overflow:visible;"
       id="marker20413"
       refX="0.0"
       refY="0.0"
       orient="auto"
       inkscape:stockid="Arrow1Lend">
      <path
         transform="scale(0.8) rotate(180) translate(12.5,0)"
         style="fill-rule:evenodd;stroke:#000000;stroke-width:1pt;stroke-opacity:1;fill:#000000;fill-opacity:1"
         d="M 0.0,0.0 L 5.0,-5.0 L -12.5,0.0 L 5.0,5.0 L 0.0,0.0 z "
         id="path20415" />
    </marker>
    <marker
       inkscape:stockid="Arrow1Lend"
       orient="auto"
       refY="0.0"
       refX="0.0"
       id="Arrow1Lend"
       style="overflow:visible;"
       inkscape:isstock="true">
      <path
         id="path20092"
         d="M 0.0,0.0 L 5.0,-5.0 L -12.5,0.0 L 5.0,5.0 L 0.0,0.0 z "
         style="fill-rule:evenodd;stroke:#2b42e6;stroke-width:1pt;stroke-opacity:1;fill:#2b42e6;fill-opacity:1"
         transform="scale(0.8) rotate(180) translate(12.5,0)" />
    </marker>
  </defs>
  <desc
     iVinci="yes"
     version="4.6"
     gridStep="20"
     showGrid="no"
     snapToGrid="no"
     codePlatform="0"
     id="desc3338" />
  <g
     inkscape:groupmode="layer"
     id="layer1"
     inkscape:label="Base"
     style="display:inline">
    <g
       id="Shape1"
       transform="matrix(1.3538723,0,0,0.5700646,-61.652788,92.32074)">
      <desc
         id="desc3342"
         flag=""
         mesh=""
         locked="0"
         pers-end="0,0"
         pers-start="0,0"
         pers-size="0,0"
         pers-center="0,0"
         transform="matrix(1.22436,0,0,1.26415,154,215)"
         blurRadius="4"
         blurEnabled="0"
         shadowOpacity="160"
         shadowBlur="4"
         shadowOffsetY="2"
         shadowOffsetX="0"
         shadowEnabled="0"
         markerEnd="0"
         markerStart="0"
         strokeStyle="0"
         font-alignment="1"
         font-underline="0"
         font-bold="0"
         font-pixelSize="20"
         font-familyName="Helvetica"
         text=""
         bounding="rect(-77.9997,-79.5003,156,159)"
         basicInfo-starPoints="5"
         basicInfo-polygonSides="6"
         basicInfo-roundedRectRadius="12"
         basicInfo-basicType="1"
         type="0"
         shapeID="1" />
    </g>
    <g
       id="Shape5"
       style="fill:#808080;fill-opacity:1;stroke:none"
       transform="translate(35.687174,92.88645)">
      <desc
         id="desc3358"
         flag=""
         mesh=""
         locked="0"
         pers-end="0,0"
         pers-start="0,0"
         pers-size="0,0"
         pers-center="0,0"
         transform="matrix(1,0,0,1,198,172.036)"
         blurRadius="4"
         blurEnabled="0"
         shadowOpacity="160"
         shadowBlur="4"
         shadowOffsetY="2"
         shadowOffsetX="0"
         shadowEnabled="0"
         markerEnd="0"
         markerStart="0"
         strokeStyle="0"
         font-alignment="1"
         font-underline="0"
         font-bold="0"
         font-pixelSize="20"
         font-familyName="Helvetica"
         text=""
         bounding="rect(-36,-24,72,48)"
         basicInfo-starPoints="5"
         basicInfo-polygonSides="6"
         basicInfo-roundedRectRadius="12"
         basicInfo-basicType="4"
         type="0"
         shapeID="5" />
      <path
         inkscape:connector-curvature="0"
         style="fill:#808080;fill-opacity:1;stroke:none;stroke-width:1;stroke-linecap:round;stroke-linejoin:miter;stroke-miterlimit:2;stroke-opacity:1"
         d="m 162,172.036 c 0,-13.255 16.118,-24 36,-24 19.882,0 36,10.745 36,24 0,13.255 -16.118,24 -36,24 -19.882,0 -36,-10.745 -36,-24 z"
         id="shapePath5" />
    </g>
    <g
       id="g20579"
       style="fill:#b3b3b3;fill-opacity:1;stroke:none"
       transform="translate(-137.96212,92.88645)">
      <desc
         id="desc20581"
         flag=""
         mesh=""
         locked="0"
         pers-end="0,0"
         pers-start="0,0"
         pers-size="0,0"
         pers-center="0,0"
         transform="matrix(1,0,0,1,198,172.036)"
         blurRadius="4"
         blurEnabled="0"
         shadowOpacity="160"
         shadowBlur="4"
         shadowOffsetY="2"
         shadowOffsetX="0"
         shadowEnabled="0"
         markerEnd="0"
         markerStart="0"
         strokeStyle="0"
         font-alignment="1"
         font-underline="0"
         font-bold="0"
         font-pixelSize="20"
         font-familyName="Helvetica"
         text=""
         bounding="rect(-36,-24,72,48)"
         basicInfo-starPoints="5"
         basicInfo-polygonSides="6"
         basicInfo-roundedRectRadius="12"
         basicInfo-basicType="4"
         type="0"
         shapeID="5" />
      <path
         inkscape:connector-curvature="0"
         style="fill:#b3b3b3;fill-opacity:1;stroke:none;stroke-width:1;stroke-linecap:round;stroke-linejoin:miter;stroke-miterlimit:2;stroke-opacity:1"
         d="m 162,172.036 c 0,-13.255 16.118,-24 36,-24 19.882,0 36,10.745 36,24 0,13.255 -16.118,24 -36,24 -19.882,0 -36,-10.745 -36,-24 z"
         id="path20583" />
    </g>
    <g
       id="Shape6"
       transform="translate(7.4104663,52.197334)">
      <desc
         id="desc3362"
         flag=""
         mesh=""
         locked="0"
         pers-end="0,0"
         pers-start="0,0"
         pers-size="0,0"
         pers-center="0,0"
         transform="matrix(1,0,0,1,109.513,216.042)"
         blurRadius="4"
         blurEnabled="0"
         shadowOpacity="160"
         shadowBlur="4"
         shadowOffsetY="2"
         shadowOffsetX="0"
         shadowEnabled="0"
         markerEnd="0"
         markerStart="0"
         strokeStyle="0"
         font-alignment="1"
         font-underline="0"
         font-bold="0"
         font-pixelSize="13"
         font-familyName="Helvetica"
         text="untracked"
         bounding="rect(-23.8939,-8.49561,47.7878,16.9912)"
         basicInfo-starPoints="5"
         basicInfo-polygonSides="6"
         basicInfo-roundedRectRadius="12"
         basicInfo-basicType="0"
         type="2"
         shapeID="6" />
      <path
         inkscape:connector-curvature="0"
         style="fill:#000000;fill-opacity:1;fill-rule:nonzero;stroke:none"
         d="m 26.105762,210.48412 0,4.513 c 0,0.347 0.0551,0.631 0.1651,0.851 0.2031,0.406 0.5819,0.609 1.1362,0.609 0.7956,0 1.3373,-0.355 1.625,-1.066 0.1566,-0.381 0.2349,-0.903 0.2349,-1.568 l 0,-3.339 1.1426,0 0,6.799 -1.0791,0 0.0126,-1.003 c -0.1481,0.258 -0.3321,0.476 -0.5522,0.654 -0.4359,0.355 -0.9648,0.533 -1.5869,0.533 -0.9691,0 -1.6292,-0.324 -1.9805,-0.971 -0.1904,-0.347 -0.2856,-0.811 -0.2856,-1.391 l 0,-4.621 1.1679,0 m 6.0762,0 1.0855,0 0,0.965 c 0.3216,-0.398 0.6622,-0.683 1.0219,-0.857 0.3597,-0.173 0.7596,-0.26 1.1997,-0.26 0.9649,0 1.6166,0.336 1.9551,1.009 0.1862,0.368 0.2793,0.895 0.2793,1.581 l 0,4.361 -1.1616,0 0,-4.285 c 0,-0.415 -0.0614,-0.749 -0.1841,-1.003 -0.2031,-0.423 -0.5713,-0.635 -1.1045,-0.635 -0.2708,0 -0.493,0.028 -0.6665,0.083 -0.3131,0.093 -0.5882,0.279 -0.8252,0.558 -0.1904,0.225 -0.3142,0.456 -0.3713,0.695 -0.0571,0.24 -0.0857,0.581 -0.0857,1.026 l 0,3.561 -1.1426,0 0,-6.799 m 7.4473,-1.898 1.1553,0 0,1.898 1.0854,0 0,0.933 -1.0854,0 0,4.437 c 0,0.237 0.0804,0.396 0.2412,0.476 0.0888,0.047 0.2369,0.07 0.4443,0.07 0.055,0 0.1143,-10e-4 0.1777,-0.003 0.0635,-0.002 0.1376,-0.007 0.2222,-0.016 l 0,0.902 c -0.1312,0.038 -0.2677,0.065 -0.4094,0.082 -0.1418,0.017 -0.2952,0.026 -0.4602,0.026 -0.5332,0 -0.895,-0.137 -1.0855,-0.41 -0.1904,-0.273 -0.2856,-0.627 -0.2856,-1.063 l 0,-4.501 -0.9204,0 0,-0.933 0.9204,0 0,-1.898 m 3.4126,1.898 1.0851,0 0,1.175 c 0.089,-0.229 0.307,-0.507 0.654,-0.835 0.347,-0.328 0.747,-0.492 1.2,-0.492 0.021,0 0.057,0.002 0.108,0.006 0.051,0.005 0.137,0.013 0.26,0.026 l 0,1.206 c -0.068,-0.013 -0.13,-0.021 -0.187,-0.026 -0.057,-0.004 -0.12,-0.006 -0.188,-0.006 -0.575,0 -1.017,0.185 -1.326,0.555 -0.309,0.371 -0.464,0.797 -0.464,1.279 l 0,3.911 -1.1421,0 0,-6.799 m 5.5341,5.77 c 0.241,0.191 0.527,0.286 0.857,0.286 0.402,0 0.791,-0.093 1.168,-0.279 0.635,-0.309 0.952,-0.815 0.952,-1.517 l 0,-0.921 c -0.14,0.089 -0.319,0.163 -0.539,0.222 -0.22,0.06 -0.436,0.102 -0.648,0.127 l -0.692,0.089 c -0.415,0.055 -0.726,0.142 -0.933,0.26 -0.351,0.199 -0.527,0.517 -0.527,0.953 0,0.33 0.121,0.59 0.362,0.78 m 2.406,-3.091 c 0.262,-0.034 0.438,-0.144 0.527,-0.33 0.05,-0.102 0.076,-0.248 0.076,-0.438 0,-0.389 -0.139,-0.672 -0.416,-0.847 -0.277,-0.176 -0.674,-0.264 -1.19,-0.264 -0.597,0 -1.02,0.161 -1.27,0.483 -0.139,0.177 -0.23,0.442 -0.273,0.793 l -1.066,0 c 0.021,-0.838 0.293,-1.421 0.816,-1.749 0.522,-0.328 1.129,-0.492 1.818,-0.492 0.8,0 1.45,0.153 1.949,0.457 0.495,0.305 0.743,0.779 0.743,1.422 l 0,3.917 c 0,0.118 0.024,0.213 0.073,0.285 0.048,0.072 0.151,0.108 0.308,0.108 0.05,0 0.107,-0.003 0.171,-0.009 0.063,-0.007 0.131,-0.016 0.203,-0.029 l 0,0.844 c -0.178,0.051 -0.313,0.083 -0.406,0.096 -0.093,0.012 -0.22,0.019 -0.381,0.019 -0.394,0 -0.679,-0.14 -0.857,-0.419 -0.093,-0.148 -0.159,-0.358 -0.197,-0.629 -0.233,0.305 -0.567,0.569 -1.003,0.794 -0.436,0.224 -0.916,0.336 -1.441,0.336 -0.63,0 -1.145,-0.191 -1.545,-0.574 -0.4,-0.383 -0.6,-0.863 -0.6,-1.438 0,-0.631 0.197,-1.119 0.59,-1.466 0.394,-0.347 0.91,-0.561 1.549,-0.641 l 1.822,-0.229 m 8.066,-2.317 c 0.48,0.372 0.769,1.014 0.866,1.923 l -1.11,0 c -0.068,-0.418 -0.223,-0.767 -0.464,-1.044 -0.241,-0.277 -0.628,-0.416 -1.161,-0.416 -0.728,0 -1.249,0.356 -1.562,1.067 -0.203,0.461 -0.305,1.03 -0.305,1.707 0,0.682 0.144,1.255 0.432,1.721 0.288,0.465 0.741,0.698 1.358,0.698 0.474,0 0.85,-0.145 1.127,-0.435 0.277,-0.29 0.469,-0.687 0.575,-1.19 l 1.11,0 c -0.127,0.901 -0.444,1.56 -0.952,1.977 -0.508,0.417 -1.157,0.625 -1.948,0.625 -0.889,0 -1.598,-0.324 -2.127,-0.974 -0.529,-0.65 -0.793,-1.461 -0.793,-2.434 0,-1.194 0.29,-2.123 0.869,-2.787 0.58,-0.664 1.318,-0.996 2.216,-0.996 0.766,0 1.389,0.186 1.869,0.558 m 1.984,-2.888 1.098,0 0,5.414 2.932,-2.888 1.46,0 -2.602,2.546 2.748,4.253 -1.46,0 -2.12,-3.428 -0.958,0.876 0,2.552 -1.098,0 0,-9.325 m 10.759,2.714 c 0.453,0.226 0.798,0.519 1.035,0.879 0.228,0.342 0.38,0.742 0.457,1.199 0.067,0.314 0.101,0.813 0.101,1.498 l -4.983,0 c 0.021,0.69 0.184,1.244 0.489,1.66 0.305,0.417 0.777,0.626 1.416,0.626 0.596,0 1.072,-0.197 1.428,-0.591 0.203,-0.228 0.347,-0.493 0.431,-0.793 l 1.124,0 c -0.03,0.249 -0.128,0.528 -0.295,0.835 -0.167,0.306 -0.355,0.557 -0.562,0.752 -0.347,0.338 -0.777,0.567 -1.289,0.685 -0.275,0.068 -0.586,0.102 -0.933,0.102 -0.846,0 -1.563,-0.308 -2.152,-0.924 -0.588,-0.615 -0.882,-1.478 -0.882,-2.586 0,-1.092 0.296,-1.979 0.889,-2.66 0.592,-0.681 1.367,-1.022 2.323,-1.022 0.482,0 0.95,0.113 1.403,0.34 m 0.419,2.669 c -0.047,-0.495 -0.155,-0.891 -0.324,-1.187 -0.313,-0.55 -0.836,-0.825 -1.568,-0.825 -0.524,0 -0.965,0.189 -1.32,0.568 -0.356,0.378 -0.544,0.86 -0.565,1.444 l 3.777,0 m 3.753,2.45 c 0.309,0.491 0.804,0.736 1.485,0.736 0.529,0 0.964,-0.227 1.305,-0.682 0.34,-0.455 0.511,-1.108 0.511,-1.958 0,-0.859 -0.176,-1.495 -0.527,-1.908 -0.352,-0.412 -0.785,-0.619 -1.302,-0.619 -0.575,0 -1.042,0.22 -1.399,0.66 -0.358,0.441 -0.537,1.088 -0.537,1.943 0,0.728 0.155,1.337 0.464,1.828 m 2.564,-5.097 c 0.203,0.127 0.434,0.349 0.692,0.666 l 0,-3.434 1.098,0 0,9.357 -1.028,0 0,-0.946 c -0.267,0.419 -0.582,0.721 -0.946,0.908 -0.364,0.186 -0.781,0.279 -1.25,0.279 -0.758,0 -1.414,-0.319 -1.968,-0.955 -0.554,-0.637 -0.832,-1.485 -0.832,-2.543 0,-0.99 0.253,-1.848 0.759,-2.574 0.506,-0.725 1.228,-1.088 2.168,-1.088 0.52,0 0.956,0.11 1.307,0.33 z"
         id="shapePath6" />
    </g>
    <g
       id="Shape7"
       transform="translate(35.682174,92.23095)">
      <desc
         id="desc3366"
         flag=""
         mesh=""
         locked="0"
         pers-end="0,0"
         pers-start="0,0"
         pers-size="0,0"
         pers-center="0,0"
         transform="matrix(1,0,0,1,198.013,173.078)"
         blurRadius="4"
         blurEnabled="0"
         shadowOpacity="160"
         shadowBlur="4"
         shadowOffsetY="2"
         shadowOffsetX="0"
         shadowEnabled="0"
         markerEnd="0"
         markerStart="0"
         strokeStyle="0"
         font-alignment="1"
         font-underline="0"
         font-bold="0"
         font-pixelSize="13"
         font-familyName="Helvetica"
         text="modified (bracked)"
         bounding="rect(-23.8939,-8.49561,47.7878,16.9912)"
         basicInfo-starPoints="5"
         basicInfo-polygonSides="6"
         basicInfo-roundedRectRadius="12"
         basicInfo-basicType="0"
         type="2"
         shapeID="7" />
      <path
         inkscape:connector-curvature="0"
         style="fill:#000000;fill-opacity:1;fill-rule:nonzero;stroke:none"
         d="m 174.32,162.795 1.13,0 0,0.965 c 0.27,-0.334 0.516,-0.578 0.736,-0.73 0.376,-0.258 0.804,-0.387 1.282,-0.387 0.542,0 0.978,0.133 1.308,0.4 0.186,0.152 0.355,0.376 0.508,0.673 0.253,-0.364 0.552,-0.634 0.895,-0.81 0.342,-0.175 0.727,-0.263 1.155,-0.263 0.914,0 1.536,0.33 1.866,0.99 0.178,0.356 0.267,0.834 0.267,1.435 l 0,4.526 -1.187,0 0,-4.723 c 0,-0.453 -0.114,-0.764 -0.34,-0.933 -0.226,-0.169 -0.503,-0.254 -0.828,-0.254 -0.449,0 -0.835,0.15 -1.159,0.451 -0.324,0.3 -0.485,0.802 -0.485,1.504 l 0,3.955 -1.162,0 0,-4.437 c 0,-0.462 -0.055,-0.798 -0.165,-1.01 -0.174,-0.317 -0.497,-0.476 -0.971,-0.476 -0.432,0 -0.824,0.167 -1.178,0.502 -0.353,0.334 -0.53,0.939 -0.53,1.815 l 0,3.606 -1.142,0 0,-6.799 m 15.084,5.202 c 0.281,-0.573 0.422,-1.211 0.422,-1.914 0,-0.634 -0.102,-1.151 -0.305,-1.548 -0.321,-0.627 -0.876,-0.94 -1.663,-0.94 -0.698,0 -1.206,0.267 -1.523,0.8 -0.318,0.533 -0.476,1.176 -0.476,1.93 0,0.723 0.158,1.326 0.476,1.809 0.317,0.482 0.821,0.723 1.511,0.723 0.757,0 1.276,-0.286 1.558,-0.86 m 0.708,-4.523 c 0.605,0.584 0.907,1.444 0.907,2.578 0,1.096 -0.266,2.001 -0.799,2.716 -0.534,0.716 -1.361,1.073 -2.482,1.073 -0.936,0 -1.678,-0.316 -2.228,-0.949 -0.551,-0.632 -0.826,-1.482 -0.826,-2.548 0,-1.143 0.29,-2.053 0.87,-2.73 0.58,-0.677 1.358,-1.015 2.336,-1.015 0.876,0 1.616,0.292 2.222,0.875 m 3.442,4.628 c 0.308,0.491 0.804,0.736 1.485,0.736 0.529,0 0.964,-0.227 1.304,-0.682 0.341,-0.455 0.511,-1.108 0.511,-1.958 0,-0.859 -0.175,-1.495 -0.527,-1.908 -0.351,-0.412 -0.785,-0.619 -1.301,-0.619 -0.575,0 -1.042,0.22 -1.399,0.66 -0.358,0.441 -0.537,1.088 -0.537,1.943 0,0.728 0.155,1.337 0.464,1.828 m 2.564,-5.097 c 0.203,0.127 0.434,0.349 0.692,0.666 l 0,-3.434 1.098,0 0,9.357 -1.028,0 0,-0.946 c -0.267,0.419 -0.582,0.721 -0.946,0.908 -0.364,0.186 -0.781,0.279 -1.251,0.279 -0.757,0 -1.413,-0.319 -1.967,-0.955 -0.555,-0.637 -0.832,-1.485 -0.832,-2.543 0,-0.99 0.253,-1.848 0.759,-2.574 0.505,-0.725 1.228,-1.088 2.167,-1.088 0.521,0 0.957,0.11 1.308,0.33 m 3.467,-0.178 1.162,0 0,6.767 -1.162,0 0,-6.767 m 0,-2.558 1.162,0 0,1.295 -1.162,0 0,-1.295 m 3.408,0.451 c 0.267,-0.39 0.781,-0.584 1.543,-0.584 0.072,0 0.146,0.002 0.222,0.006 0.076,0.004 0.163,0.011 0.26,0.019 l 0,1.041 c -0.118,-0.008 -0.204,-0.014 -0.257,-0.016 -0.053,-0.002 -0.102,-0.003 -0.149,-0.003 -0.347,0 -0.554,0.09 -0.622,0.27 -0.068,0.18 -0.102,0.638 -0.102,1.374 l 1.13,0 0,0.901 -1.142,0 0,5.866 -1.13,0 0,-5.866 -0.946,0 0,-0.901 0.946,0 0,-1.066 c 0.017,-0.474 0.099,-0.821 0.247,-1.041 m 3.124,0.844 0,-1.295 1.142,0 0,1.295 -1.142,0 m 0,1.263 1.142,0 0,6.767 -1.142,0 0,-6.767 m 7.077,0.156 c 0.453,0.226 0.798,0.519 1.035,0.879 0.228,0.342 0.381,0.742 0.457,1.199 0.068,0.314 0.101,0.813 0.101,1.498 l -4.982,0 c 0.021,0.69 0.184,1.244 0.488,1.66 0.305,0.417 0.777,0.626 1.416,0.626 0.596,0 1.073,-0.197 1.428,-0.591 0.203,-0.228 0.347,-0.493 0.432,-0.793 l 1.123,0 c -0.029,0.249 -0.128,0.528 -0.295,0.835 -0.167,0.306 -0.354,0.557 -0.562,0.752 -0.347,0.338 -0.776,0.567 -1.288,0.685 -0.275,0.068 -0.586,0.102 -0.933,0.102 -0.847,0 -1.564,-0.308 -2.152,-0.924 -0.588,-0.615 -0.883,-1.478 -0.883,-2.586 0,-1.092 0.297,-1.979 0.889,-2.66 0.593,-0.681 1.367,-1.022 2.323,-1.022 0.483,0 0.95,0.113 1.403,0.34 m 0.419,2.669 c -0.046,-0.495 -0.154,-0.891 -0.324,-1.187 -0.313,-0.55 -0.835,-0.825 -1.568,-0.825 -0.524,0 -0.964,0.189 -1.32,0.568 -0.355,0.378 -0.544,0.86 -0.565,1.444 l 3.777,0 m 3.753,2.45 c 0.309,0.491 0.804,0.736 1.485,0.736 0.529,0 0.964,-0.227 1.305,-0.682 0.34,-0.455 0.511,-1.108 0.511,-1.958 0,-0.859 -0.176,-1.495 -0.527,-1.908 -0.351,-0.412 -0.785,-0.619 -1.301,-0.619 -0.576,0 -1.042,0.22 -1.4,0.66 -0.358,0.441 -0.536,1.088 -0.536,1.943 0,0.728 0.154,1.337 0.463,1.828 m 2.564,-5.097 c 0.204,0.127 0.434,0.349 0.692,0.666 l 0,-3.434 1.099,0 0,9.357 -1.029,0 0,-0.946 c -0.266,0.419 -0.582,0.721 -0.946,0.908 -0.364,0.186 -0.78,0.279 -1.25,0.279 -0.758,0 -1.413,-0.319 -1.968,-0.955 -0.554,-0.637 -0.831,-1.485 -0.831,-2.543 0,-0.99 0.252,-1.848 0.758,-2.574 0.506,-0.725 1.228,-1.088 2.168,-1.088 0.52,0 0.956,0.11 1.307,0.33 m -45.492,10.112 c -0.665,1.29 -1.096,2.24 -1.295,2.85 -0.301,0.926 -0.451,1.997 -0.451,3.212 0,1.227 0.172,2.348 0.514,3.364 0.212,0.626 0.629,1.528 1.251,2.704 l -0.768,0 c -0.618,-0.965 -1.001,-1.581 -1.149,-1.847 -0.148,-0.267 -0.309,-0.629 -0.483,-1.086 -0.237,-0.626 -0.402,-1.295 -0.495,-2.006 -0.046,-0.368 -0.07,-0.719 -0.07,-1.053 0,-1.253 0.197,-2.368 0.591,-3.345 0.25,-0.623 0.77,-1.554 1.561,-2.793 l 0.794,0 m 1.23,0.12 1.111,0 0,3.383 c 0.25,-0.325 0.548,-0.574 0.895,-0.745 0.347,-0.172 0.724,-0.257 1.13,-0.257 0.846,0 1.533,0.29 2.06,0.872 0.527,0.582 0.79,1.44 0.79,2.574 0,1.075 -0.26,1.968 -0.781,2.679 -0.52,0.711 -1.242,1.066 -2.164,1.066 -0.516,0 -0.952,-0.124 -1.308,-0.374 -0.211,-0.148 -0.438,-0.385 -0.679,-0.711 l 0,0.87 -1.054,0 0,-9.357 m 4.358,7.827 c 0.307,-0.491 0.46,-1.139 0.46,-1.943 0,-0.715 -0.153,-1.307 -0.46,-1.777 -0.307,-0.47 -0.759,-0.704 -1.355,-0.704 -0.521,0 -0.977,0.192 -1.368,0.577 -0.392,0.385 -0.587,1.02 -0.587,1.904 0,0.639 0.08,1.158 0.241,1.556 0.3,0.749 0.861,1.123 1.682,1.123 0.618,0 1.08,-0.245 1.387,-0.736 m 2.982,-5.269 1.085,0 0,1.175 c 0.089,-0.229 0.307,-0.507 0.654,-0.835 0.347,-0.328 0.747,-0.492 1.2,-0.492 0.021,0 0.057,0.002 0.108,0.006 0.05,0.005 0.137,0.013 0.26,0.026 l 0,1.206 c -0.068,-0.013 -0.13,-0.021 -0.187,-0.026 -0.058,-0.004 -0.12,-0.006 -0.188,-0.006 -0.575,0 -1.017,0.185 -1.326,0.555 -0.309,0.371 -0.464,0.797 -0.464,1.279 l 0,3.911 -1.142,0 0,-6.799 m 5.534,5.77 c 0.241,0.191 0.527,0.286 0.857,0.286 0.402,0 0.791,-0.093 1.168,-0.279 0.634,-0.309 0.952,-0.815 0.952,-1.517 l 0,-0.921 c -0.14,0.089 -0.32,0.163 -0.54,0.222 -0.22,0.06 -0.436,0.102 -0.647,0.127 l -0.692,0.089 c -0.415,0.055 -0.726,0.142 -0.933,0.26 -0.351,0.199 -0.527,0.517 -0.527,0.953 0,0.33 0.121,0.59 0.362,0.78 m 2.406,-3.091 c 0.262,-0.034 0.438,-0.144 0.526,-0.33 0.051,-0.102 0.077,-0.248 0.077,-0.438 0,-0.389 -0.139,-0.672 -0.416,-0.847 -0.277,-0.176 -0.674,-0.264 -1.19,-0.264 -0.597,0 -1.02,0.161 -1.27,0.483 -0.14,0.177 -0.231,0.442 -0.273,0.793 l -1.066,0 c 0.021,-0.838 0.293,-1.421 0.815,-1.749 0.523,-0.328 1.129,-0.492 1.819,-0.492 0.8,0 1.449,0.153 1.949,0.457 0.495,0.305 0.742,0.779 0.742,1.422 l 0,3.917 c 0,0.118 0.025,0.213 0.073,0.285 0.049,0.072 0.152,0.108 0.308,0.108 0.051,0 0.108,-0.003 0.172,-0.009 0.063,-0.007 0.131,-0.016 0.203,-0.029 l 0,0.844 c -0.178,0.051 -0.313,0.083 -0.406,0.096 -0.094,0.012 -0.22,0.019 -0.381,0.019 -0.394,0 -0.679,-0.14 -0.857,-0.419 -0.093,-0.148 -0.159,-0.358 -0.197,-0.629 -0.233,0.305 -0.567,0.569 -1.003,0.794 -0.436,0.224 -0.916,0.336 -1.441,0.336 -0.63,0 -1.146,-0.191 -1.546,-0.574 -0.399,-0.383 -0.599,-0.863 -0.599,-1.438 0,-0.631 0.196,-1.119 0.59,-1.466 0.394,-0.347 0.91,-0.561 1.549,-0.641 l 1.822,-0.229 m 8.066,-2.317 c 0.48,0.372 0.769,1.014 0.866,1.923 l -1.111,0 c -0.067,-0.419 -0.222,-0.767 -0.463,-1.044 -0.241,-0.277 -0.628,-0.416 -1.162,-0.416 -0.728,0 -1.248,0.356 -1.561,1.067 -0.203,0.461 -0.305,1.03 -0.305,1.707 0,0.682 0.144,1.255 0.432,1.721 0.288,0.465 0.74,0.698 1.358,0.698 0.474,0 0.85,-0.145 1.127,-0.435 0.277,-0.29 0.469,-0.687 0.574,-1.19 l 1.111,0 c -0.127,0.901 -0.444,1.56 -0.952,1.977 -0.508,0.417 -1.157,0.625 -1.949,0.625 -0.888,0 -1.597,-0.324 -2.126,-0.974 -0.529,-0.65 -0.794,-1.461 -0.794,-2.434 0,-1.194 0.29,-2.123 0.87,-2.787 0.58,-0.664 1.318,-0.996 2.215,-0.996 0.766,0 1.389,0.186 1.87,0.558 m 1.983,-2.888 1.099,0 0,5.414 2.932,-2.888 1.46,0 -2.602,2.546 2.748,4.253 -1.46,0 -2.12,-3.428 -0.958,0.876 0,2.552 -1.099,0 0,-9.325 m 10.76,2.714 c 0.452,0.226 0.797,0.519 1.034,0.879 0.229,0.342 0.381,0.742 0.457,1.199 0.068,0.314 0.102,0.813 0.102,1.498 l -4.983,0 c 0.021,0.69 0.184,1.244 0.489,1.66 0.304,0.417 0.776,0.626 1.415,0.626 0.597,0 1.073,-0.197 1.429,-0.591 0.203,-0.228 0.347,-0.493 0.431,-0.793 l 1.124,0 c -0.03,0.249 -0.128,0.528 -0.295,0.835 -0.168,0.306 -0.355,0.557 -0.562,0.752 -0.347,0.338 -0.777,0.567 -1.289,0.685 -0.275,0.068 -0.586,0.102 -0.933,0.102 -0.846,0 -1.564,-0.308 -2.152,-0.924 -0.588,-0.615 -0.882,-1.478 -0.882,-2.586 0,-1.092 0.296,-1.979 0.889,-2.66 0.592,-0.681 1.366,-1.022 2.323,-1.022 0.482,0 0.95,0.113 1.403,0.34 m 0.419,2.669 c -0.047,-0.495 -0.155,-0.891 -0.324,-1.187 -0.313,-0.55 -0.836,-0.825 -1.568,-0.825 -0.525,0 -0.965,0.189 -1.32,0.568 -0.356,0.378 -0.544,0.86 -0.565,1.444 l 3.777,0 m 3.753,2.45 c 0.308,0.491 0.804,0.736 1.485,0.736 0.529,0 0.964,-0.227 1.304,-0.682 0.341,-0.455 0.511,-1.108 0.511,-1.958 0,-0.859 -0.175,-1.495 -0.527,-1.908 -0.351,-0.412 -0.785,-0.619 -1.301,-0.619 -0.575,0 -1.042,0.22 -1.399,0.66 -0.358,0.441 -0.537,1.088 -0.537,1.943 0,0.728 0.155,1.337 0.464,1.828 m 2.564,-5.097 c 0.203,0.127 0.434,0.349 0.692,0.666 l 0,-3.434 1.098,0 0,9.357 -1.028,0 0,-0.946 c -0.267,0.419 -0.582,0.721 -0.946,0.908 -0.364,0.186 -0.781,0.279 -1.251,0.279 -0.757,0 -1.413,-0.319 -1.967,-0.955 -0.555,-0.637 -0.832,-1.485 -0.832,-2.543 0,-0.99 0.253,-1.848 0.759,-2.574 0.505,-0.725 1.228,-1.088 2.167,-1.088 0.521,0 0.957,0.11 1.308,0.33 m 3.08,9.242 c 0.673,-1.312 1.107,-2.268 1.301,-2.869 0.297,-0.91 0.445,-1.976 0.445,-3.199 0,-1.223 -0.172,-2.343 -0.514,-3.358 -0.212,-0.627 -0.629,-1.528 -1.251,-2.704 l 0.768,0 c 0.652,1.041 1.046,1.683 1.184,1.926 0.137,0.243 0.287,0.579 0.447,1.006 0.204,0.529 0.348,1.052 0.435,1.568 0.087,0.516 0.13,1.014 0.13,1.492 0,1.252 -0.199,2.37 -0.596,3.351 -0.25,0.631 -0.768,1.56 -1.555,2.787 l -0.794,0 z"
         id="shapePath7" />
    </g>
    <g
       id="Shape2"
       transform="matrix(1.1803521,0,0,0.99957112,-3.3727561,-0.805146)"
       style="fill:none;fill-opacity:1">
      <desc
         id="desc3346"
         flag=""
         mesh=""
         locked="0"
         pers-end="0,0"
         pers-start="0,0"
         pers-size="0,0"
         pers-center="0,0"
         transform="matrix(2.01282,0,0,1.26415,432.5,215)"
         blurRadius="4"
         blurEnabled="0"
         shadowOpacity="160"
         shadowBlur="4"
         shadowOffsetY="2"
         shadowOffsetX="0"
         shadowEnabled="0"
         markerEnd="0"
         markerStart="0"
         strokeStyle="0"
         font-alignment="1"
         font-underline="0"
         font-bold="0"
         font-pixelSize="20"
         font-familyName="Helvetica"
         text=""
         bounding="rect(-78,-79.5003,156,159)"
         basicInfo-starPoints="5"
         basicInfo-polygonSides="6"
         basicInfo-roundedRectRadius="12"
         basicInfo-basicType="1"
         type="0"
         shapeID="2" />
      <path
         inkscape:connector-curvature="0"
         style="fill:none;fill-opacity:1;stroke:#323232;stroke-width:1;stroke-linecap:round;stroke-linejoin:miter;stroke-miterlimit:2;stroke-dasharray:3, 3;stroke-dashoffset:0;stroke-opacity:1"
         d="m 275.5,114.5 314,0 0,201 -314,0 0,-201 z"
         id="shapePath2" />
    </g>
    <path
       style="fill:none;fill-rule:evenodd;stroke:#000000;stroke-width:1px;stroke-linecap:butt;stroke-linejoin:miter;stroke-opacity:1"
       d="M 200.99523,138.6524 Z"
       id="path20081"
       inkscape:connector-curvature="0" />
    <rect
       rx="15.074976"
       ry="26.578447"
       y="127.369"
       x="499.00333"
       height="172.03447"
       width="182.88992"
       id="rect20599"
       style="fill:#bb8b8b;fill-opacity:1;stroke:#000000;stroke-width:1.09823036;stroke-miterlimit:2;stroke-dasharray:none;stroke-dashoffset:0;stroke-opacity:1" />
    <g
       transform="translate(-45.450271,92.88645)"
       style="fill:#999999;fill-opacity:1;stroke:none"
       id="g20573">
      <desc
         shapeID="5"
         type="0"
         basicInfo-basicType="4"
         basicInfo-roundedRectRadius="12"
         basicInfo-polygonSides="6"
         basicInfo-starPoints="5"
         bounding="rect(-36,-24,72,48)"
         text=""
         font-familyName="Helvetica"
         font-pixelSize="20"
         font-bold="0"
         font-underline="0"
         font-alignment="1"
         strokeStyle="0"
         markerStart="0"
         markerEnd="0"
         shadowEnabled="0"
         shadowOffsetX="0"
         shadowOffsetY="2"
         shadowBlur="4"
         shadowOpacity="160"
         blurEnabled="0"
         blurRadius="4"
         transform="matrix(1,0,0,1,198,172.036)"
         pers-center="0,0"
         pers-size="0,0"
         pers-start="0,0"
         pers-end="0,0"
         locked="0"
         mesh=""
         flag=""
         id="desc20575" />
      <path
         id="path20577"
         d="m 156.31279,172.036 c 0,-13.255 16.118,-24 36,-24 19.882,0 36,10.745 36,24 0,13.255 -16.118,24 -36,24 -19.882,0 -36,-10.745 -36,-24 z"
         style="fill:#999999;fill-opacity:1;stroke:none;stroke-width:1;stroke-linecap:round;stroke-linejoin:miter;stroke-miterlimit:2;stroke-opacity:1"
         inkscape:connector-curvature="0" />
    </g>
    <g
       id="Shape8"
       transform="translate(-51.144981,-7.733046)">
      <desc
         id="desc3370"
         flag=""
         mesh=""
         locked="0"
         pers-end="0,0"
         pers-start="0,0"
         pers-size="0,0"
         pers-center="0,0"
         transform="matrix(1,0,0,1,198.013,273.042)"
         blurRadius="4"
         blurEnabled="0"
         shadowOpacity="160"
         shadowBlur="4"
         shadowOffsetY="2"
         shadowOffsetX="0"
         shadowEnabled="0"
         markerEnd="0"
         markerStart="0"
         strokeStyle="0"
         font-alignment="1"
         font-underline="0"
         font-bold="0"
         font-pixelSize="13"
         font-familyName="Helvetica"
         text="unmodified (tracked)"
         bounding="rect(-23.8939,-8.49561,47.7878,16.9912)"
         basicInfo-starPoints="5"
         basicInfo-polygonSides="6"
         basicInfo-roundedRectRadius="12"
         basicInfo-basicType="0"
         type="2"
         shapeID="8" />
      <path
         inkscape:connector-curvature="0"
         style="fill:#000000;fill-opacity:1;fill-rule:nonzero;stroke:none"
         d="m 168.243,262.759 0,4.513 c 0,0.347 0.055,0.631 0.166,0.851 0.203,0.406 0.581,0.609 1.136,0.609 0.795,0 1.337,-0.355 1.625,-1.066 0.156,-0.381 0.235,-0.903 0.235,-1.568 l 0,-3.339 1.142,0 0,6.799 -1.079,0 0.013,-1.003 c -0.148,0.258 -0.332,0.476 -0.552,0.653 -0.436,0.356 -0.965,0.534 -1.587,0.534 -0.969,0 -1.63,-0.324 -1.981,-0.971 -0.19,-0.348 -0.285,-0.811 -0.285,-1.391 l 0,-4.621 1.167,0 m 6.077,0 1.085,0 0,0.965 c 0.322,-0.398 0.662,-0.683 1.022,-0.857 0.36,-0.173 0.76,-0.26 1.2,-0.26 0.965,0 1.616,0.336 1.955,1.009 0.186,0.368 0.279,0.895 0.279,1.581 l 0,4.361 -1.161,0 0,-4.285 c 0,-0.415 -0.062,-0.749 -0.185,-1.003 -0.203,-0.423 -0.571,-0.635 -1.104,-0.635 -0.271,0 -0.493,0.028 -0.667,0.083 -0.313,0.093 -0.588,0.279 -0.825,0.558 -0.19,0.225 -0.314,0.456 -0.371,0.695 -0.057,0.24 -0.086,0.581 -0.086,1.026 l 0,3.561 -1.142,0 0,-6.799 m 7.218,0 1.13,0 0,0.965 c 0.271,-0.334 0.517,-0.578 0.737,-0.73 0.376,-0.258 0.804,-0.387 1.282,-0.387 0.542,0 0.977,0.133 1.307,0.4 0.187,0.152 0.356,0.376 0.508,0.673 0.254,-0.364 0.553,-0.634 0.895,-0.81 0.343,-0.175 0.728,-0.263 1.156,-0.263 0.914,0 1.536,0.33 1.866,0.99 0.177,0.356 0.266,0.834 0.266,1.435 l 0,4.526 -1.187,0 0,-4.723 c 0,-0.453 -0.113,-0.764 -0.339,-0.933 -0.227,-0.169 -0.503,-0.254 -0.829,-0.254 -0.448,0 -0.834,0.15 -1.158,0.451 -0.324,0.3 -0.486,0.802 -0.486,1.504 l 0,3.955 -1.161,0 0,-4.437 c 0,-0.462 -0.055,-0.798 -0.165,-1.01 -0.174,-0.317 -0.498,-0.476 -0.972,-0.476 -0.431,0 -0.824,0.167 -1.177,0.502 -0.353,0.334 -0.53,0.939 -0.53,1.815 l 0,3.606 -1.143,0 0,-6.799 m 15.085,5.202 c 0.281,-0.573 0.422,-1.211 0.422,-1.914 0,-0.634 -0.102,-1.151 -0.305,-1.548 -0.322,-0.627 -0.876,-0.94 -1.663,-0.94 -0.698,0 -1.206,0.267 -1.523,0.8 -0.318,0.533 -0.477,1.176 -0.477,1.93 0,0.723 0.159,1.326 0.477,1.809 0.317,0.482 0.82,0.723 1.51,0.723 0.758,0 1.277,-0.286 1.559,-0.86 m 0.707,-4.523 c 0.606,0.584 0.908,1.444 0.908,2.578 0,1.096 -0.267,2.001 -0.8,2.716 -0.533,0.716 -1.36,1.073 -2.482,1.073 -0.935,0 -1.678,-0.316 -2.228,-0.949 -0.55,-0.632 -0.825,-1.482 -0.825,-2.548 0,-1.143 0.29,-2.053 0.87,-2.73 0.58,-0.677 1.358,-1.016 2.336,-1.016 0.876,0 1.616,0.292 2.221,0.876 m 3.442,4.628 c 0.309,0.491 0.804,0.736 1.486,0.736 0.529,0 0.963,-0.227 1.304,-0.682 0.341,-0.455 0.511,-1.108 0.511,-1.958 0,-0.859 -0.176,-1.495 -0.527,-1.908 -0.351,-0.412 -0.785,-0.619 -1.301,-0.619 -0.576,0 -1.042,0.22 -1.4,0.66 -0.357,0.441 -0.536,1.088 -0.536,1.943 0,0.728 0.154,1.337 0.463,1.828 m 2.565,-5.097 c 0.203,0.127 0.433,0.349 0.692,0.666 l 0,-3.434 1.098,0 0,9.357 -1.029,0 0,-0.946 c -0.266,0.419 -0.581,0.721 -0.945,0.908 -0.364,0.186 -0.781,0.279 -1.251,0.279 -0.757,0 -1.413,-0.319 -1.968,-0.955 -0.554,-0.637 -0.831,-1.485 -0.831,-2.543 0,-0.99 0.253,-1.848 0.758,-2.574 0.506,-0.725 1.229,-1.088 2.168,-1.088 0.521,0 0.956,0.11 1.308,0.33 m 3.467,-0.178 1.162,0 0,6.767 -1.162,0 0,-6.767 m 0,-2.558 1.162,0 0,1.295 -1.162,0 0,-1.295 m 3.408,0.451 c 0.267,-0.39 0.781,-0.584 1.543,-0.584 0.072,0 0.146,0.002 0.222,0.006 0.076,0.004 0.163,0.011 0.26,0.019 l 0,1.041 c -0.118,-0.008 -0.204,-0.014 -0.257,-0.016 -0.053,-0.002 -0.103,-0.003 -0.149,-0.003 -0.347,0 -0.554,0.09 -0.622,0.27 -0.068,0.18 -0.102,0.638 -0.102,1.374 l 1.13,0 0,0.901 -1.142,0 0,5.866 -1.13,0 0,-5.866 -0.946,0 0,-0.901 0.946,0 0,-1.066 c 0.017,-0.474 0.099,-0.821 0.247,-1.041 m 3.123,0.844 0,-1.295 1.143,0 0,1.295 -1.143,0 m 0,1.263 1.143,0 0,6.767 -1.143,0 0,-6.767 m 7.078,0.156 c 0.453,0.226 0.798,0.519 1.035,0.879 0.228,0.342 0.38,0.742 0.457,1.199 0.067,0.314 0.101,0.813 0.101,1.498 l -4.983,0 c 0.021,0.69 0.184,1.244 0.489,1.66 0.305,0.417 0.777,0.626 1.416,0.626 0.596,0 1.072,-0.197 1.428,-0.591 0.203,-0.228 0.347,-0.493 0.431,-0.793 l 1.124,0 c -0.03,0.249 -0.128,0.528 -0.295,0.835 -0.167,0.306 -0.355,0.557 -0.562,0.752 -0.347,0.338 -0.777,0.567 -1.289,0.685 -0.275,0.068 -0.586,0.102 -0.933,0.102 -0.846,0 -1.563,-0.308 -2.152,-0.924 -0.588,-0.615 -0.882,-1.478 -0.882,-2.586 0,-1.092 0.296,-1.979 0.889,-2.66 0.592,-0.681 1.367,-1.022 2.323,-1.022 0.482,0 0.95,0.113 1.403,0.34 m 0.419,2.669 c -0.047,-0.495 -0.155,-0.891 -0.324,-1.187 -0.313,-0.55 -0.836,-0.825 -1.568,-0.825 -0.524,0 -0.965,0.189 -1.32,0.568 -0.356,0.378 -0.544,0.86 -0.565,1.444 l 3.777,0 m 3.753,2.45 c 0.309,0.491 0.804,0.736 1.485,0.736 0.529,0 0.964,-0.227 1.305,-0.682 0.34,-0.455 0.511,-1.108 0.511,-1.958 0,-0.859 -0.176,-1.495 -0.527,-1.908 -0.352,-0.412 -0.785,-0.619 -1.302,-0.619 -0.575,0 -1.042,0.22 -1.399,0.66 -0.358,0.441 -0.537,1.088 -0.537,1.943 0,0.728 0.155,1.337 0.464,1.828 m 2.564,-5.097 c 0.203,0.127 0.434,0.349 0.692,0.666 l 0,-3.434 1.098,0 0,9.357 -1.028,0 0,-0.946 c -0.267,0.419 -0.582,0.721 -0.946,0.908 -0.364,0.186 -0.781,0.279 -1.25,0.279 -0.758,0 -1.414,-0.319 -1.968,-0.955 -0.554,-0.637 -0.832,-1.485 -0.832,-2.543 0,-0.99 0.253,-1.848 0.759,-2.574 0.506,-0.725 1.228,-1.088 2.168,-1.088 0.52,0 0.956,0.11 1.307,0.33 m -50.914,10.112 c -0.665,1.29 -1.096,2.24 -1.295,2.85 -0.301,0.926 -0.451,1.997 -0.451,3.212 0,1.227 0.171,2.348 0.514,3.364 0.212,0.626 0.629,1.528 1.251,2.704 l -0.768,0 c -0.618,-0.965 -1.001,-1.581 -1.149,-1.847 -0.148,-0.267 -0.309,-0.629 -0.483,-1.086 -0.237,-0.626 -0.402,-1.295 -0.495,-2.006 -0.046,-0.368 -0.07,-0.719 -0.07,-1.053 0,-1.253 0.197,-2.368 0.591,-3.345 0.249,-0.623 0.77,-1.554 1.561,-2.793 l 0.794,0 m 1.548,0.78 1.155,0 0,1.898 1.085,0 0,0.933 -1.085,0 0,4.437 c 0,0.237 0.08,0.396 0.241,0.476 0.089,0.047 0.237,0.07 0.444,0.07 0.055,0 0.115,-0.001 0.178,-0.003 0.064,-0.002 0.138,-0.007 0.222,-0.016 l 0,0.902 c -0.131,0.038 -0.267,0.065 -0.409,0.082 -0.142,0.017 -0.295,0.026 -0.46,0.026 -0.534,0 -0.895,-0.137 -1.086,-0.41 -0.19,-0.273 -0.285,-0.627 -0.285,-1.063 l 0,-4.501 -0.921,0 0,-0.933 0.921,0 0,-1.898 m 3.412,1.898 1.086,0 0,1.175 c 0.088,-0.229 0.306,-0.507 0.653,-0.835 0.347,-0.328 0.747,-0.492 1.2,-0.492 0.021,0 0.057,0.002 0.108,0.006 0.051,0.005 0.138,0.013 0.26,0.026 l 0,1.206 c -0.067,-0.013 -0.13,-0.021 -0.187,-0.026 -0.057,-0.004 -0.12,-0.006 -0.187,-0.006 -0.576,0 -1.018,0.185 -1.327,0.555 -0.309,0.371 -0.463,0.797 -0.463,1.279 l 0,3.911 -1.143,0 0,-6.799 m 5.534,5.77 c 0.242,0.191 0.527,0.286 0.857,0.286 0.402,0 0.792,-0.093 1.168,-0.279 0.635,-0.309 0.952,-0.815 0.952,-1.517 l 0,-0.921 c -0.139,0.089 -0.319,0.163 -0.539,0.222 -0.22,0.06 -0.436,0.102 -0.648,0.127 l -0.692,0.089 c -0.414,0.055 -0.725,0.142 -0.933,0.26 -0.351,0.199 -0.527,0.517 -0.527,0.953 0,0.33 0.121,0.59 0.362,0.78 m 2.406,-3.091 c 0.262,-0.034 0.438,-0.144 0.527,-0.33 0.051,-0.102 0.076,-0.248 0.076,-0.438 0,-0.389 -0.138,-0.672 -0.416,-0.847 -0.277,-0.176 -0.674,-0.264 -1.19,-0.264 -0.597,0 -1.02,0.161 -1.269,0.483 -0.14,0.177 -0.231,0.442 -0.273,0.793 l -1.067,0 c 0.021,-0.838 0.293,-1.421 0.816,-1.749 0.523,-0.328 1.129,-0.492 1.819,-0.492 0.799,0 1.449,0.153 1.948,0.457 0.495,0.305 0.743,0.779 0.743,1.422 l 0,3.917 c 0,0.118 0.024,0.213 0.073,0.285 0.049,0.072 0.151,0.108 0.308,0.108 0.051,0 0.108,-0.003 0.171,-0.009 0.064,-0.007 0.131,-0.016 0.203,-0.029 l 0,0.844 c -0.177,0.051 -0.313,0.083 -0.406,0.096 -0.093,0.012 -0.22,0.019 -0.381,0.019 -0.393,0 -0.679,-0.14 -0.857,-0.419 -0.093,-0.148 -0.158,-0.358 -0.197,-0.629 -0.232,0.305 -0.567,0.569 -1.002,0.794 -0.436,0.224 -0.917,0.336 -1.441,0.336 -0.631,0 -1.146,-0.191 -1.546,-0.574 -0.4,-0.383 -0.6,-0.863 -0.6,-1.438 0,-0.631 0.197,-1.119 0.59,-1.466 0.394,-0.347 0.91,-0.561 1.549,-0.641 l 1.822,-0.229 m 8.066,-2.317 c 0.481,0.372 0.769,1.014 0.867,1.923 l -1.111,0 c -0.068,-0.419 -0.222,-0.767 -0.464,-1.044 -0.241,-0.277 -0.628,-0.416 -1.161,-0.416 -0.728,0 -1.249,0.356 -1.562,1.067 -0.203,0.461 -0.304,1.03 -0.304,1.707 0,0.682 0.144,1.255 0.431,1.721 0.288,0.465 0.741,0.698 1.359,0.698 0.474,0 0.849,-0.145 1.126,-0.435 0.278,-0.29 0.469,-0.687 0.575,-1.19 l 1.111,0 c -0.127,0.901 -0.445,1.56 -0.952,1.977 -0.508,0.417 -1.158,0.625 -1.949,0.625 -0.889,0 -1.598,-0.324 -2.127,-0.974 -0.529,-0.65 -0.793,-1.461 -0.793,-2.434 0,-1.194 0.29,-2.123 0.87,-2.787 0.579,-0.664 1.318,-0.997 2.215,-0.997 0.766,0 1.389,0.187 1.869,0.559 m 1.984,-2.888 1.098,0 0,5.414 2.933,-2.888 1.46,0 -2.603,2.546 2.749,4.253 -1.46,0 -2.12,-3.428 -0.959,0.876 0,2.552 -1.098,0 0,-9.325 m 10.759,2.714 c 0.453,0.226 0.798,0.519 1.035,0.879 0.228,0.342 0.381,0.742 0.457,1.199 0.068,0.314 0.101,0.813 0.101,1.498 l -4.982,0 c 0.021,0.69 0.184,1.244 0.488,1.66 0.305,0.417 0.777,0.626 1.416,0.626 0.596,0 1.073,-0.197 1.428,-0.591 0.203,-0.228 0.347,-0.493 0.432,-0.793 l 1.123,0 c -0.029,0.249 -0.128,0.528 -0.295,0.835 -0.167,0.306 -0.354,0.557 -0.562,0.752 -0.347,0.338 -0.776,0.567 -1.288,0.685 -0.275,0.068 -0.586,0.102 -0.933,0.102 -0.847,0 -1.564,-0.308 -2.152,-0.924 -0.588,-0.615 -0.883,-1.478 -0.883,-2.586 0,-1.092 0.297,-1.979 0.889,-2.66 0.593,-0.681 1.367,-1.022 2.323,-1.022 0.483,0 0.95,0.113 1.403,0.34 m 0.419,2.669 c -0.046,-0.495 -0.154,-0.891 -0.324,-1.187 -0.313,-0.55 -0.835,-0.825 -1.568,-0.825 -0.524,0 -0.964,0.189 -1.32,0.568 -0.355,0.378 -0.544,0.86 -0.565,1.444 l 3.777,0 m 3.753,2.45 c 0.309,0.491 0.804,0.736 1.485,0.736 0.529,0 0.964,-0.227 1.305,-0.682 0.34,-0.455 0.511,-1.108 0.511,-1.958 0,-0.859 -0.176,-1.495 -0.527,-1.908 -0.351,-0.412 -0.785,-0.619 -1.301,-0.619 -0.576,0 -1.042,0.22 -1.4,0.66 -0.358,0.441 -0.536,1.088 -0.536,1.943 0,0.728 0.154,1.337 0.463,1.828 m 2.564,-5.097 c 0.204,0.127 0.434,0.349 0.692,0.666 l 0,-3.434 1.099,0 0,9.357 -1.029,0 0,-0.946 c -0.266,0.419 -0.582,0.721 -0.946,0.908 -0.364,0.186 -0.78,0.279 -1.25,0.279 -0.758,0 -1.413,-0.319 -1.968,-0.955 -0.554,-0.637 -0.831,-1.485 -0.831,-2.543 0,-0.99 0.252,-1.848 0.758,-2.574 0.506,-0.725 1.228,-1.088 2.168,-1.088 0.52,0 0.956,0.11 1.307,0.33 m 3.081,9.242 c 0.672,-1.312 1.106,-2.268 1.301,-2.869 0.296,-0.91 0.444,-1.976 0.444,-3.199 0,-1.223 -0.171,-2.343 -0.514,-3.358 -0.212,-0.627 -0.628,-1.528 -1.25,-2.704 l 0.768,0 c 0.651,1.041 1.046,1.683 1.183,1.926 0.138,0.243 0.287,0.579 0.448,1.006 0.203,0.529 0.348,1.052 0.435,1.568 0.086,0.516 0.13,1.014 0.13,1.492 0,1.252 -0.199,2.37 -0.597,3.351 -0.249,0.631 -0.768,1.56 -1.555,2.787 l -0.793,0 z"
         id="shapePath8" />
    </g>
    <text
       xml:space="preserve"
       style="font-style:normal;font-weight:normal;font-size:30px;line-height:125%;font-family:sans-serif;letter-spacing:0px;word-spacing:0px;fill:#000000;fill-opacity:1;stroke:none;stroke-width:1px;stroke-linecap:butt;stroke-linejoin:miter;stroke-opacity:1"
       x="89.526031"
       y="137.13582"
       id="text20585"
       sodipodi:linespacing="125%"><tspan
         sodipodi:role="line"
         id="tspan20587"
         x="89.526031"
         y="137.13582" /></text>
    <text
       xml:space="preserve"
       style="font-style:normal;font-weight:normal;font-size:40px;line-height:125%;font-family:sans-serif;letter-spacing:0px;word-spacing:0px;fill:#000000;fill-opacity:1;stroke:none;stroke-width:1px;stroke-linecap:butt;stroke-linejoin:miter;stroke-opacity:1"
       x="94.336884"
       y="212.45563"
       id="text20589"
       sodipodi:linespacing="125%"><tspan
         sodipodi:role="line"
         id="tspan20591"
         x="94.336884"
         y="212.45563"
         style="font-style:normal;font-variant:normal;font-weight:normal;font-stretch:normal;font-size:17.5px;font-family:'Microsoft YaHei';-inkscape-font-specification:'Microsoft YaHei'">本地工作目录</tspan></text>
    <text
       sodipodi:linespacing="125%"
       id="text20593"
       y="104.57104"
       x="514.34912"
       style="font-style:normal;font-weight:normal;font-size:40px;line-height:125%;font-family:sans-serif;letter-spacing:0px;word-spacing:0px;fill:#000000;fill-opacity:1;stroke:none;stroke-width:1px;stroke-linecap:butt;stroke-linejoin:miter;stroke-opacity:1"
       xml:space="preserve"><tspan
         style="font-style:normal;font-variant:normal;font-weight:normal;font-stretch:normal;font-size:17.5px;font-family:'Microsoft YaHei';-inkscape-font-specification:'Microsoft YaHei'"
         y="104.57104"
         x="514.34912"
         id="tspan20595"
         sodipodi:role="line">.git</tspan></text>
    <rect
       style="fill:none;fill-opacity:1;stroke:#000000;stroke-width:1;stroke-miterlimit:2;stroke-dasharray:none;stroke-dashoffset:0;stroke-opacity:1"
       id="rect20597"
       width="262.60901"
       height="99.336494"
       x="15.558015"
       y="215.25421"
       ry="15.34698"
       rx="10.318172" />
    <rect
       style="fill:none;fill-opacity:1;stroke:#000000;stroke-width:0.832977;stroke-miterlimit:2;stroke-dasharray:none;stroke-dashoffset:0;stroke-opacity:1"
       id="rect20603"
       width="105.05091"
       height="172.29973"
       x="343.2688"
       y="127.23637"
       ry="26.619427"
       rx="13.837152" />
    <text
       xml:space="preserve"
       style="font-style:normal;font-weight:normal;font-size:40px;line-height:125%;font-family:sans-serif;letter-spacing:0px;word-spacing:0px;fill:#000000;fill-opacity:1;stroke:none;stroke-width:1px;stroke-linecap:butt;stroke-linejoin:miter;stroke-opacity:1"
       x="554.26666"
       y="138.80963"
       id="text20611"
       sodipodi:linespacing="125%"><tspan
         sodipodi:role="line"
         id="tspan20613"
         x="554.26666"
         y="138.80963"
         style="font-style:normal;font-variant:normal;font-weight:normal;font-stretch:normal;font-size:15px;font-family:'Microsoft YaHei';-inkscape-font-specification:'Microsoft YaHei'">commited</tspan></text>
    <text
       xml:space="preserve"
       style="font-style:normal;font-weight:normal;font-size:40px;line-height:125%;font-family:sans-serif;letter-spacing:0px;word-spacing:0px;fill:#000000;fill-opacity:1;stroke:none;stroke-width:1px;stroke-linecap:butt;stroke-linejoin:miter;stroke-opacity:1"
       x="371.41925"
       y="138.80963"
       id="text20619"
       sodipodi:linespacing="125%"><tspan
         sodipodi:role="line"
         id="tspan20621"
         x="371.41925"
         y="138.80963"
         style="font-style:normal;font-variant:normal;font-weight:normal;font-stretch:normal;font-size:15px;font-family:'Microsoft YaHei';-inkscape-font-specification:'Microsoft YaHei'">staged</tspan><tspan
         sodipodi:role="line"
         x="371.41925"
         y="157.55963"
         style="font-style:normal;font-variant:normal;font-weight:normal;font-stretch:normal;font-size:15px;font-family:'Microsoft YaHei';-inkscape-font-specification:'Microsoft YaHei'"
         id="tspan20623">(index)</tspan></text>
    <g
       id="g40323"
       transform="matrix(0.60474934,0,0,1.1339051,244.9333,3.2256071)">
      <rect
         ry="0"
         rx="0"
         y="155.89876"
         x="438.30838"
         height="17.638161"
         width="33.071556"
         id="rect40311"
         style="fill:#808080;fill-opacity:1;stroke:none;stroke-width:0.82200003;stroke-miterlimit:4;stroke-dasharray:2.466, 2.466;stroke-dashoffset:0;stroke-opacity:1" />
      <text
         sodipodi:linespacing="125%"
         id="text40319"
         y="196.56139"
         x="382.20294"
         style="font-style:normal;font-weight:normal;font-size:46.36488342px;line-height:125%;font-family:sans-serif;letter-spacing:0px;word-spacing:0px;fill:#000000;fill-opacity:1;stroke:none;stroke-width:1px;stroke-linecap:butt;stroke-linejoin:miter;stroke-opacity:1"
         xml:space="preserve"
         transform="scale(1.1591221,0.86272188)"><tspan
           style="font-size:14.48902607px"
           y="196.56139"
           x="382.20294"
           id="tspan40321"
           sodipodi:role="line">C1</tspan></text>
    </g>
    <path
       style="fill:none;fill-rule:evenodd;stroke:#000000;stroke-width:0.95243025px;stroke-linecap:butt;stroke-linejoin:miter;stroke-opacity:1"
       d="m 530,190 20,0"
       id="path40374"
       inkscape:connector-curvature="0" />
    <path
       style="fill:none;fill-rule:evenodd;stroke:#000000;stroke-width:0.97448903px;stroke-linecap:butt;stroke-linejoin:miter;stroke-opacity:1"
       d="M 559.66244,219.64847 530.34118,190.82416"
       id="path40438"
       inkscape:connector-type="polyline"
       inkscape:connector-curvature="0"
       sodipodi:nodetypes="cc" />
    <path
       style="color:#000000;clip-rule:nonzero;display:inline;overflow:visible;visibility:visible;opacity:1;isolation:auto;mix-blend-mode:normal;color-interpolation:sRGB;color-interpolation-filters:linearRGB;solid-color:#000000;solid-opacity:1;fill:none;fill-opacity:1;fill-rule:evenodd;stroke:#2b42e6;stroke-width:1;stroke-linecap:butt;stroke-linejoin:miter;stroke-miterlimit:4;stroke-dasharray:none;stroke-dashoffset:0;stroke-opacity:1;color-rendering:auto;image-rendering:auto;shape-rendering:auto;text-rendering:auto;enable-background:accumulate"
       d="m 359.5,170.5 0,10 10,0 0,-10 z"
       id="path4643"
       inkscape:connector-curvature="0" />
    <path
       style="color:#000000;clip-rule:nonzero;display:inline;overflow:visible;visibility:visible;opacity:1;isolation:auto;mix-blend-mode:normal;color-interpolation:sRGB;color-interpolation-filters:linearRGB;solid-color:#000000;solid-opacity:1;fill:none;fill-opacity:1;fill-rule:evenodd;stroke:#2b42e6;stroke-width:1.0049082;stroke-linecap:butt;stroke-linejoin:miter;stroke-miterlimit:4;stroke-dasharray:none;stroke-dashoffset:0;stroke-opacity:1;color-rendering:auto;image-rendering:auto;shape-rendering:auto;text-rendering:auto;enable-background:accumulate"
       d="m 369.5,180.5 0,60.5"
       id="path4645"
       inkscape:connector-curvature="0"
       sodipodi:nodetypes="cc" />
    <path
       style="color:#000000;clip-rule:nonzero;display:inline;overflow:visible;visibility:visible;opacity:1;isolation:auto;mix-blend-mode:normal;color-interpolation:sRGB;color-interpolation-filters:linearRGB;solid-color:#000000;solid-opacity:1;fill:none;fill-opacity:1;fill-rule:evenodd;stroke:#2b42e6;stroke-width:1;stroke-linecap:butt;stroke-linejoin:miter;stroke-miterlimit:4;stroke-dasharray:none;stroke-dashoffset:0;stroke-opacity:1;color-rendering:auto;image-rendering:auto;shape-rendering:auto;text-rendering:auto;enable-background:accumulate"
       d="m 369.5,200.5 10,0"
       id="path4647"
       inkscape:connector-curvature="0" />
    <path
       style="color:#000000;clip-rule:nonzero;display:inline;overflow:visible;visibility:visible;opacity:1;isolation:auto;mix-blend-mode:normal;color-interpolation:sRGB;color-interpolation-filters:linearRGB;solid-color:#000000;solid-opacity:1;fill:none;fill-opacity:1;fill-rule:evenodd;stroke:#2b42e6;stroke-width:1;stroke-linecap:butt;stroke-linejoin:miter;stroke-miterlimit:4;stroke-dasharray:none;stroke-dashoffset:0;stroke-opacity:1;color-rendering:auto;image-rendering:auto;shape-rendering:auto;text-rendering:auto;enable-background:accumulate"
       d="m 369.5,220.5 10,0 10,0"
       id="path4649"
       inkscape:connector-curvature="0" />
    <path
       style="color:#000000;clip-rule:nonzero;display:inline;overflow:visible;visibility:visible;opacity:1;isolation:auto;mix-blend-mode:normal;color-interpolation:sRGB;color-interpolation-filters:linearRGB;solid-color:#000000;solid-opacity:1;fill:none;fill-opacity:1;fill-rule:evenodd;stroke:#2b42e6;stroke-width:1;stroke-linecap:butt;stroke-linejoin:miter;stroke-miterlimit:4;stroke-dasharray:none;stroke-dashoffset:0;stroke-opacity:1;color-rendering:auto;image-rendering:auto;shape-rendering:auto;text-rendering:auto;enable-background:accumulate"
       d="m 379.5,200.5 0,10 10,0 0,-10 z"
       id="path4651"
       inkscape:connector-curvature="0" />
    <path
       inkscape:connector-curvature="0"
       id="path4653"
       d="m 399,240 0,10 10,0 0,-10 z"
       style="color:#000000;clip-rule:nonzero;display:inline;overflow:visible;visibility:visible;opacity:1;isolation:auto;mix-blend-mode:normal;color-interpolation:sRGB;color-interpolation-filters:linearRGB;solid-color:#000000;solid-opacity:1;fill:none;fill-opacity:1;fill-rule:evenodd;stroke:#2b42e6;stroke-width:1;stroke-linecap:butt;stroke-linejoin:miter;stroke-miterlimit:4;stroke-dasharray:none;stroke-dashoffset:0;stroke-opacity:1;color-rendering:auto;image-rendering:auto;shape-rendering:auto;text-rendering:auto;enable-background:accumulate" />
    <path
       style="color:#000000;clip-rule:nonzero;display:inline;overflow:visible;visibility:visible;opacity:1;isolation:auto;mix-blend-mode:normal;color-interpolation:sRGB;color-interpolation-filters:linearRGB;solid-color:#000000;solid-opacity:1;fill:none;fill-opacity:1;fill-rule:evenodd;stroke:#2b42e6;stroke-width:1;stroke-linecap:butt;stroke-linejoin:miter;stroke-miterlimit:4;stroke-dasharray:none;stroke-dashoffset:0;stroke-opacity:1;color-rendering:auto;image-rendering:auto;shape-rendering:auto;text-rendering:auto;enable-background:accumulate"
       d="m 389,220 0,10 10,0 0,-10 z"
       id="path4655"
       inkscape:connector-curvature="0" />
    <path
       style="color:#000000;clip-rule:nonzero;display:inline;overflow:visible;visibility:visible;opacity:1;isolation:auto;mix-blend-mode:normal;color-interpolation:sRGB;color-interpolation-filters:linearRGB;solid-color:#000000;solid-opacity:1;fill:none;fill-opacity:1;fill-rule:evenodd;stroke:#2b42e6;stroke-width:1;stroke-linecap:butt;stroke-linejoin:miter;stroke-miterlimit:4;stroke-dasharray:none;stroke-dashoffset:0;stroke-opacity:1;color-rendering:auto;image-rendering:auto;shape-rendering:auto;text-rendering:auto;enable-background:accumulate"
       d="m 369.5,240.5 30,0"
       id="path4657"
       inkscape:connector-curvature="0" />
    <path
       style="color:#000000;clip-rule:nonzero;display:inline;overflow:visible;visibility:visible;opacity:1;isolation:auto;mix-blend-mode:normal;color-interpolation:sRGB;color-interpolation-filters:linearRGB;solid-color:#000000;solid-opacity:1;fill:none;fill-opacity:1;fill-rule:evenodd;stroke:#2b42e6;stroke-width:1.2041595;stroke-linecap:butt;stroke-linejoin:miter;stroke-miterlimit:4;stroke-dasharray:none;stroke-dashoffset:0;stroke-opacity:1;color-rendering:auto;image-rendering:auto;shape-rendering:auto;text-rendering:auto;enable-background:accumulate"
       d="m 409.5,250.5 0,29"
       id="path4661"
       inkscape:connector-curvature="0" />
    <path
       style="color:#000000;clip-rule:nonzero;display:inline;overflow:visible;visibility:visible;opacity:1;isolation:auto;mix-blend-mode:normal;color-interpolation:sRGB;color-interpolation-filters:linearRGB;solid-color:#000000;solid-opacity:1;fill:none;fill-opacity:1;fill-rule:evenodd;stroke:#2b42e6;stroke-width:1;stroke-linecap:butt;stroke-linejoin:miter;stroke-miterlimit:4;stroke-dasharray:none;stroke-dashoffset:0;stroke-opacity:1;color-rendering:auto;image-rendering:auto;shape-rendering:auto;text-rendering:auto;enable-background:accumulate"
       d="m 409.5,260.5 10,0"
       id="path4663"
       inkscape:connector-curvature="0" />
    <path
       style="color:#000000;clip-rule:nonzero;display:inline;overflow:visible;visibility:visible;opacity:1;isolation:auto;mix-blend-mode:normal;color-interpolation:sRGB;color-interpolation-filters:linearRGB;solid-color:#000000;solid-opacity:1;fill:none;fill-opacity:1;fill-rule:evenodd;stroke:#2b42e6;stroke-width:1;stroke-linecap:butt;stroke-linejoin:miter;stroke-miterlimit:4;stroke-dasharray:none;stroke-dashoffset:0;stroke-opacity:1;color-rendering:auto;image-rendering:auto;shape-rendering:auto;text-rendering:auto;enable-background:accumulate"
       d="m 409.5,280 10,0"
       id="path4665"
       inkscape:connector-curvature="0" />
    <path
       style="color:#000000;clip-rule:nonzero;display:inline;overflow:visible;visibility:visible;opacity:1;isolation:auto;mix-blend-mode:normal;color-interpolation:sRGB;color-interpolation-filters:linearRGB;solid-color:#000000;solid-opacity:1;fill:none;fill-opacity:1;fill-rule:evenodd;stroke:#2b42e6;stroke-width:1;stroke-linecap:butt;stroke-linejoin:miter;stroke-miterlimit:4;stroke-dasharray:none;stroke-dashoffset:0;stroke-opacity:1;color-rendering:auto;image-rendering:auto;shape-rendering:auto;text-rendering:auto;enable-background:accumulate"
       d="m 419,280 0,10 10,0 0,-10 z"
       id="path4667"
       inkscape:connector-curvature="0" />
    <path
       inkscape:connector-curvature="0"
       id="path4669"
       d="m 419,260 0,10 10,0 0,-10 z"
       style="color:#000000;clip-rule:nonzero;display:inline;overflow:visible;visibility:visible;opacity:1;isolation:auto;mix-blend-mode:normal;color-interpolation:sRGB;color-interpolation-filters:linearRGB;solid-color:#000000;solid-opacity:1;fill:none;fill-opacity:1;fill-rule:evenodd;stroke:#2b42e6;stroke-width:1;stroke-linecap:butt;stroke-linejoin:miter;stroke-miterlimit:4;stroke-dasharray:none;stroke-dashoffset:0;stroke-opacity:1;color-rendering:auto;image-rendering:auto;shape-rendering:auto;text-rendering:auto;enable-background:accumulate" />
    <path
       inkscape:connector-curvature="0"
       id="path4671"
       d="m 590,189.5 20,0"
       style="fill:none;fill-rule:evenodd;stroke:#000000;stroke-width:0.95243043px;stroke-linecap:butt;stroke-linejoin:miter;stroke-opacity:1" />
    <g
       transform="matrix(0.60474934,0,0,1.1339051,284.93329,3.2256031)"
       id="g4673">
      <rect
         style="fill:#808080;fill-opacity:1;stroke:none;stroke-width:0.82200003;stroke-miterlimit:4;stroke-dasharray:2.466, 2.466;stroke-dashoffset:0;stroke-opacity:1"
         id="rect4675"
         width="33.071556"
         height="17.638161"
         x="438.30838"
         y="155.89876"
         rx="0"
         ry="0" />
      <text
         transform="scale(1.1591221,0.86272188)"
         xml:space="preserve"
         style="font-style:normal;font-weight:normal;font-size:46.36488342px;line-height:125%;font-family:sans-serif;letter-spacing:0px;word-spacing:0px;fill:#000000;fill-opacity:1;stroke:none;stroke-width:1px;stroke-linecap:butt;stroke-linejoin:miter;stroke-opacity:1"
         x="382.20294"
         y="196.56139"
         id="text4677"
         sodipodi:linespacing="125%"><tspan
           sodipodi:role="line"
           id="tspan4679"
           x="382.20294"
           y="196.56139"
           style="font-size:14.48902607px">C2</tspan></text>
    </g>
    <g
       id="g4681"
       transform="matrix(0.60474934,0,0,1.1339051,324.9333,3.2256031)">
      <rect
         ry="0"
         rx="0"
         y="155.89876"
         x="438.30838"
         height="17.638161"
         width="33.071556"
         id="rect4683"
         style="fill:#808080;fill-opacity:1;stroke:none;stroke-width:0.82200003;stroke-miterlimit:4;stroke-dasharray:2.466, 2.466;stroke-dashoffset:0;stroke-opacity:1" />
      <text
         sodipodi:linespacing="125%"
         id="text4685"
         y="196.56139"
         x="382.20294"
         style="font-style:normal;font-weight:normal;font-size:46.36488342px;line-height:125%;font-family:sans-serif;letter-spacing:0px;word-spacing:0px;fill:#000000;fill-opacity:1;stroke:none;stroke-width:1px;stroke-linecap:butt;stroke-linejoin:miter;stroke-opacity:1"
         xml:space="preserve"
         transform="scale(1.1591221,0.86272188)"><tspan
           style="font-size:14.48902607px"
           y="196.56139"
           x="382.20294"
           id="tspan4687"
           sodipodi:role="line">C4</tspan></text>
    </g>
    <g
       transform="matrix(0.60474934,0,0,1.1339051,364.93329,3.2256031)"
       id="g4689">
      <rect
         style="fill:#808080;fill-opacity:1;stroke:none;stroke-width:0.82200003;stroke-miterlimit:4;stroke-dasharray:2.466, 2.466;stroke-dashoffset:0;stroke-opacity:1"
         id="rect4691"
         width="33.071556"
         height="17.638161"
         x="438.30838"
         y="155.89876"
         rx="0"
         ry="0" />
      <text
         transform="scale(1.1591221,0.86272188)"
         xml:space="preserve"
         style="font-style:normal;font-weight:normal;font-size:46.36488342px;line-height:125%;font-family:sans-serif;letter-spacing:0px;word-spacing:0px;fill:#000000;fill-opacity:1;stroke:none;stroke-width:1px;stroke-linecap:butt;stroke-linejoin:miter;stroke-opacity:1"
         x="382.20294"
         y="196.56139"
         id="text4693"
         sodipodi:linespacing="125%"><tspan
           sodipodi:role="line"
           id="tspan4695"
           x="382.20294"
           y="196.56139"
           style="font-size:14.48902607px">C6</tspan></text>
    </g>
    <g
       id="g4697"
       transform="matrix(0.60474934,0,0,1.1339051,294.9333,33.225603)">
      <rect
         ry="0"
         rx="0"
         y="155.89876"
         x="438.30838"
         height="17.638161"
         width="33.071556"
         id="rect4699"
         style="fill:#808080;fill-opacity:1;stroke:none;stroke-width:0.82200003;stroke-miterlimit:4;stroke-dasharray:2.466, 2.466;stroke-dashoffset:0;stroke-opacity:1" />
      <text
         sodipodi:linespacing="125%"
         id="text4701"
         y="196.56139"
         x="382.20294"
         style="font-style:normal;font-weight:normal;font-size:46.36488342px;line-height:125%;font-family:sans-serif;letter-spacing:0px;word-spacing:0px;fill:#000000;fill-opacity:1;stroke:none;stroke-width:1px;stroke-linecap:butt;stroke-linejoin:miter;stroke-opacity:1"
         xml:space="preserve"
         transform="scale(1.1591221,0.86272188)"><tspan
           style="font-size:14.48902607px"
           y="196.56139"
           x="382.20294"
           id="tspan4703"
           sodipodi:role="line">C3</tspan></text>
    </g>
    <g
       transform="matrix(0.60474934,0,0,1.1339051,334.93329,33.225603)"
       id="g4705">
      <rect
         style="fill:#808080;fill-opacity:1;stroke:none;stroke-width:0.82200003;stroke-miterlimit:4;stroke-dasharray:2.466, 2.466;stroke-dashoffset:0;stroke-opacity:1"
         id="rect4707"
         width="33.071556"
         height="17.638161"
         x="438.30838"
         y="155.89876"
         rx="0"
         ry="0" />
      <text
         transform="scale(1.1591221,0.86272188)"
         xml:space="preserve"
         style="font-style:normal;font-weight:normal;font-size:46.36488342px;line-height:125%;font-family:sans-serif;letter-spacing:0px;word-spacing:0px;fill:#000000;fill-opacity:1;stroke:none;stroke-width:1px;stroke-linecap:butt;stroke-linejoin:miter;stroke-opacity:1"
         x="382.20294"
         y="196.56139"
         id="text4709"
         sodipodi:linespacing="125%"><tspan
           sodipodi:role="line"
           id="tspan4711"
           x="382.20294"
           y="196.56139"
           style="font-size:14.48902607px">C5</tspan></text>
    </g>
    <text
       xml:space="preserve"
       style="font-style:normal;font-weight:normal;font-size:40px;line-height:125%;font-family:sans-serif;letter-spacing:0px;word-spacing:0px;fill:#000000;fill-opacity:1;stroke:none;stroke-width:1px;stroke-linecap:butt;stroke-linejoin:miter;stroke-opacity:1"
       x="570"
       y="203.91045"
       id="text4713"
       sodipodi:linespacing="125%"><tspan
         sodipodi:role="line"
         id="tspan4715"
         x="570"
         y="203.91045"></tspan></text>
    <path
       inkscape:connector-curvature="0"
       id="path4717"
       d="m 570,190 20,0"
       style="fill:none;fill-rule:evenodd;stroke:#000000;stroke-width:0.95243025px;stroke-linecap:butt;stroke-linejoin:miter;stroke-opacity:1" />
    <path
       style="fill:none;fill-rule:evenodd;stroke:#000000;stroke-width:0.95243025px;stroke-linecap:butt;stroke-linejoin:miter;stroke-opacity:1"
       d="m 610,190 20,0"
       id="path4719"
       inkscape:connector-curvature="0" />
    <path
       style="fill:none;fill-rule:evenodd;stroke:#000000;stroke-width:0.95243025px;stroke-linecap:butt;stroke-linejoin:miter;stroke-opacity:1"
       d="m 580,220 20,0"
       id="path4721"
       inkscape:connector-curvature="0" />
  </g>
  <g
     id="g4389" />
  <g
     id="g6627" />
  <g
     id="g7395" />
  <g
     id="g8371" />
</svg>
