<?xml version="1.0"?>
<svg version="1.1" xmlns="http://www.w3.org/2000/svg" xmlns:xlink="http://www.w3.org/1999/xlink" width="640" height="480">
    <desc iVinci="yes" version="4.6" gridStep="20" showGrid="no" snapToGrid="no" codePlatform="0"/>
    <g id="Layer1" name="Layer 1" opacity="1">
        <g id="Shape1">
            <desc shapeID="1" type="0" basicInfo-basicType="1" basicInfo-roundedRectRadius="12" basicInfo-polygonSides="6" basicInfo-starPoints="5" bounding="rect(-77.9997,-79.5003,156,159)" text="" font-familyName="Helvetica" font-pixelSize="20" font-bold="0" font-underline="0" font-alignment="1" strokeStyle="0" markerStart="0" markerEnd="0" shadowEnabled="0" shadowOffsetX="0" shadowOffsetY="2" shadowBlur="4" shadowOpacity="160" blurEnabled="0" blurRadius="4" transform="matrix(1.22436,0,0,1.26415,154,215)" pers-center="0,0" pers-size="0,0" pers-start="0,0" pers-end="0,0" locked="0" mesh="" flag=""/>
            <path id="shapePath1" d="M58.5,114.5 L249.5,114.5 L249.5,315.5 L58.5,315.5 L58.5,114.5 Z" style="stroke:#323232;stroke-opacity:1;stroke-width:1;stroke-linejoin:miter;stroke-miterlimit:2;stroke-linecap:round;fill:none;"/>
        </g>
        <g id="Shape2">
            <desc shapeID="2" type="0" basicInfo-basicType="1" basicInfo-roundedRectRadius="12" basicInfo-polygonSides="6" basicInfo-starPoints="5" bounding="rect(-78,-79.5003,156,159)" text="" font-familyName="Helvetica" font-pixelSize="20" font-bold="0" font-underline="0" font-alignment="1" strokeStyle="0" markerStart="0" markerEnd="0" shadowEnabled="0" shadowOffsetX="0" shadowOffsetY="2" shadowBlur="4" shadowOpacity="160" blurEnabled="0" blurRadius="4" transform="matrix(2.01282,0,0,1.26415,432.5,215)" pers-center="0,0" pers-size="0,0" pers-start="0,0" pers-end="0,0" locked="0" mesh="" flag=""/>
            <path id="shapePath2" d="M275.5,114.5 L589.5,114.5 L589.5,315.5 L275.5,315.5 L275.5,114.5 Z" style="stroke:#323232;stroke-opacity:1;stroke-width:1;stroke-linejoin:miter;stroke-miterlimit:2;stroke-linecap:round;fill:none;"/>
        </g>
        <g id="Shape3">
            <desc shapeID="3" type="0" basicInfo-basicType="0" basicInfo-roundedRectRadius="12" basicInfo-polygonSides="6" basicInfo-starPoints="5" bounding="rect(-36,-24,72,48)" text="" font-familyName="Helvetica" font-pixelSize="20" font-bold="0" font-underline="0" font-alignment="1" strokeStyle="0" markerStart="0" markerEnd="0" shadowEnabled="0" shadowOffsetX="0" shadowOffsetY="2" shadowBlur="4" shadowOpacity="160" blurEnabled="0" blurRadius="4" transform="matrix(1,0,0,1,109.5,215)" pers-center="0,0" pers-size="0,0" pers-start="0,0" pers-end="0,0" locked="0" mesh="" flag=""/>
            <path id="shapePath3" d="M73.5,215 C73.5,201.745 89.6178,191 109.5,191 C129.382,191 145.5,201.745 145.5,215 C145.5,228.255 129.382,239 109.5,239 C89.6178,239 73.5,228.255 73.5,215 Z" style="stroke:#323232;stroke-opacity:1;stroke-width:1;stroke-linejoin:miter;stroke-miterlimit:2;stroke-linecap:round;fill:none;"/>
        </g>
        <g id="Shape4">
            <desc shapeID="4" type="0" basicInfo-basicType="4" basicInfo-roundedRectRadius="12" basicInfo-polygonSides="6" basicInfo-starPoints="5" bounding="rect(-36,-24,72,48)" text="" font-familyName="Helvetica" font-pixelSize="20" font-bold="0" font-underline="0" font-alignment="1" strokeStyle="0" markerStart="0" markerEnd="0" shadowEnabled="0" shadowOffsetX="0" shadowOffsetY="2" shadowBlur="4" shadowOpacity="160" blurEnabled="0" blurRadius="4" transform="matrix(1,0,0,1,198,272)" pers-center="0,0" pers-size="0,0" pers-start="0,0" pers-end="0,0" locked="0" mesh="" flag=""/>
            <path id="shapePath4" d="M162,272 C162,258.745 178.118,248 198,248 C217.882,248 234,258.745 234,272 C234,285.255 217.882,296 198,296 C178.118,296 162,285.255 162,272 Z" style="stroke:#323232;stroke-opacity:1;stroke-width:1;stroke-linejoin:miter;stroke-miterlimit:2;stroke-linecap:round;fill:none;"/>
        </g>
        <g id="Shape5">
            <desc shapeID="5" type="0" basicInfo-basicType="4" basicInfo-roundedRectRadius="12" basicInfo-polygonSides="6" basicInfo-starPoints="5" bounding="rect(-36,-24,72,48)" text="" font-familyName="Helvetica" font-pixelSize="20" font-bold="0" font-underline="0" font-alignment="1" strokeStyle="0" markerStart="0" markerEnd="0" shadowEnabled="0" shadowOffsetX="0" shadowOffsetY="2" shadowBlur="4" shadowOpacity="160" blurEnabled="0" blurRadius="4" transform="matrix(1,0,0,1,198,172.036)" pers-center="0,0" pers-size="0,0" pers-start="0,0" pers-end="0,0" locked="0" mesh="" flag=""/>
            <path id="shapePath5" d="M162,172.036 C162,158.781 178.118,148.036 198,148.036 C217.882,148.036 234,158.781 234,172.036 C234,185.291 217.882,196.036 198,196.036 C178.118,196.036 162,185.291 162,172.036 Z" style="stroke:#323232;stroke-opacity:1;stroke-width:1;stroke-linejoin:miter;stroke-miterlimit:2;stroke-linecap:round;fill:none;"/>
        </g>
        <g id="Shape6">
            <desc shapeID="6" type="2" basicInfo-basicType="0" basicInfo-roundedRectRadius="12" basicInfo-polygonSides="6" basicInfo-starPoints="5" bounding="rect(-23.8939,-8.49561,47.7878,16.9912)" text="untracked" font-familyName="Helvetica" font-pixelSize="13" font-bold="0" font-underline="0" font-alignment="1" strokeStyle="0" markerStart="0" markerEnd="0" shadowEnabled="0" shadowOffsetX="0" shadowOffsetY="2" shadowBlur="4" shadowOpacity="160" blurEnabled="0" blurRadius="4" transform="matrix(1,0,0,1,109.513,216.042)" pers-center="0,0" pers-size="0,0" pers-start="0,0" pers-end="0,0" locked="0" mesh="" flag=""/>
            <path id="shapePath6" d="M82.9778,212.759 L82.9778,217.272 C82.9778,217.619 83.0329,217.903 83.1429,218.123 C83.346,218.529 83.7248,218.732 84.2791,218.732 C85.0747,218.732 85.6164,218.377 85.9041,217.666 C86.0607,217.285 86.139,216.763 86.139,216.098 L86.139,212.759 L87.2816,212.759 L87.2816,219.558 L86.2025,219.558 L86.2151,218.555 C86.067,218.813 85.883,219.031 85.6629,219.209 C85.227,219.564 84.6981,219.742 84.076,219.742 C83.1069,219.742 82.4468,219.418 82.0955,218.771 C81.9051,218.424 81.8099,217.96 81.8099,217.38 L81.8099,212.759 L82.9778,212.759 M89.054,212.759 L90.1395,212.759 L90.1395,213.724 C90.4611,213.326 90.8017,213.041 91.1614,212.867 C91.5211,212.694 91.921,212.607 92.3611,212.607 C93.326,212.607 93.9777,212.943 94.3162,213.616 C94.5024,213.984 94.5955,214.511 94.5955,215.197 L94.5955,219.558 L93.4339,219.558 L93.4339,215.273 C93.4339,214.858 93.3725,214.524 93.2498,214.27 C93.0467,213.847 92.6785,213.635 92.1453,213.635 C91.8745,213.635 91.6523,213.663 91.4788,213.718 C91.1657,213.811 90.8906,213.997 90.6536,214.276 C90.4632,214.501 90.3394,214.732 90.2823,214.971 C90.2252,215.211 90.1966,215.552 90.1966,215.997 L90.1966,219.558 L89.054,219.558 L89.054,212.759 M96.5013,210.861 L97.6566,210.861 L97.6566,212.759 L98.742,212.759 L98.742,213.692 L97.6566,213.692 L97.6566,218.129 C97.6566,218.366 97.737,218.525 97.8978,218.605 C97.9866,218.652 98.1347,218.675 98.3421,218.675 C98.3971,218.675 98.4564,218.674 98.5198,218.672 C98.5833,218.67 98.6574,218.665 98.742,218.656 L98.742,219.558 C98.6108,219.596 98.4743,219.623 98.3326,219.64 C98.1908,219.657 98.0374,219.666 97.8724,219.666 C97.3392,219.666 96.9774,219.529 96.7869,219.256 C96.5965,218.983 96.5013,218.629 96.5013,218.193 L96.5013,213.692 L95.5809,213.692 L95.5809,212.759 L96.5013,212.759 L96.5013,210.861 M99.9139,212.759 L100.999,212.759 L100.999,213.934 C101.088,213.705 101.306,213.427 101.653,213.099 C102,212.771 102.4,212.607 102.853,212.607 C102.874,212.607 102.91,212.609 102.961,212.613 C103.012,212.618 103.098,212.626 103.221,212.639 L103.221,213.845 C103.153,213.832 103.091,213.824 103.034,213.819 C102.977,213.815 102.914,213.813 102.846,213.813 C102.271,213.813 101.829,213.998 101.52,214.368 C101.211,214.739 101.056,215.165 101.056,215.647 L101.056,219.558 L99.9139,219.558 L99.9139,212.759 M105.448,218.529 C105.689,218.72 105.975,218.815 106.305,218.815 C106.707,218.815 107.096,218.722 107.473,218.536 C108.108,218.227 108.425,217.721 108.425,217.019 L108.425,216.098 C108.285,216.187 108.106,216.261 107.886,216.32 C107.666,216.38 107.45,216.422 107.238,216.447 L106.546,216.536 C106.131,216.591 105.82,216.678 105.613,216.796 C105.262,216.995 105.086,217.313 105.086,217.749 C105.086,218.079 105.207,218.339 105.448,218.529 M107.854,215.438 C108.116,215.404 108.292,215.294 108.381,215.108 C108.431,215.006 108.457,214.86 108.457,214.67 C108.457,214.281 108.318,213.998 108.041,213.823 C107.764,213.647 107.367,213.559 106.851,213.559 C106.254,213.559 105.831,213.72 105.581,214.042 C105.442,214.219 105.351,214.484 105.308,214.835 L104.242,214.835 C104.263,213.997 104.535,213.414 105.058,213.086 C105.58,212.758 106.187,212.594 106.876,212.594 C107.676,212.594 108.326,212.747 108.825,213.051 C109.32,213.356 109.568,213.83 109.568,214.473 L109.568,218.39 C109.568,218.508 109.592,218.603 109.641,218.675 C109.689,218.747 109.792,218.783 109.949,218.783 C109.999,218.783 110.056,218.78 110.12,218.774 C110.183,218.767 110.251,218.758 110.323,218.745 L110.323,219.589 C110.145,219.64 110.01,219.672 109.917,219.685 C109.824,219.697 109.697,219.704 109.536,219.704 C109.142,219.704 108.857,219.564 108.679,219.285 C108.586,219.137 108.52,218.927 108.482,218.656 C108.249,218.961 107.915,219.225 107.479,219.45 C107.043,219.674 106.563,219.786 106.038,219.786 C105.408,219.786 104.893,219.595 104.493,219.212 C104.093,218.829 103.893,218.349 103.893,217.774 C103.893,217.143 104.09,216.655 104.483,216.308 C104.877,215.961 105.393,215.747 106.032,215.667 L107.854,215.438 M115.92,213.121 C116.4,213.493 116.689,214.135 116.786,215.044 L115.676,215.044 C115.608,214.626 115.453,214.277 115.212,214 C114.971,213.723 114.584,213.584 114.051,213.584 C113.323,213.584 112.802,213.94 112.489,214.651 C112.286,215.112 112.184,215.681 112.184,216.358 C112.184,217.04 112.328,217.613 112.616,218.079 C112.904,218.544 113.357,218.777 113.974,218.777 C114.448,218.777 114.824,218.632 115.101,218.342 C115.378,218.052 115.57,217.655 115.676,217.152 L116.786,217.152 C116.659,218.053 116.342,218.712 115.834,219.129 C115.326,219.546 114.677,219.754 113.886,219.754 C112.997,219.754 112.288,219.43 111.759,218.78 C111.23,218.13 110.966,217.319 110.966,216.346 C110.966,215.152 111.256,214.223 111.835,213.559 C112.415,212.895 113.153,212.563 114.051,212.563 C114.817,212.563 115.44,212.749 115.92,213.121 M117.904,210.233 L119.002,210.233 L119.002,215.647 L121.934,212.759 L123.394,212.759 L120.792,215.305 L123.54,219.558 L122.08,219.558 L119.96,216.13 L119.002,217.006 L119.002,219.558 L117.904,219.558 L117.904,210.233 M128.663,212.947 C129.116,213.173 129.461,213.466 129.698,213.826 C129.926,214.168 130.078,214.568 130.155,215.025 C130.222,215.339 130.256,215.838 130.256,216.523 L125.273,216.523 C125.294,217.213 125.457,217.767 125.762,218.183 C126.067,218.6 126.539,218.809 127.178,218.809 C127.774,218.809 128.25,218.612 128.606,218.218 C128.809,217.99 128.953,217.725 129.037,217.425 L130.161,217.425 C130.131,217.674 130.033,217.953 129.866,218.26 C129.699,218.566 129.511,218.817 129.304,219.012 C128.957,219.35 128.527,219.579 128.015,219.697 C127.74,219.765 127.429,219.799 127.082,219.799 C126.236,219.799 125.519,219.491 124.93,218.875 C124.342,218.26 124.048,217.397 124.048,216.289 C124.048,215.197 124.344,214.31 124.937,213.629 C125.529,212.948 126.304,212.607 127.26,212.607 C127.742,212.607 128.21,212.72 128.663,212.947 M129.082,215.616 C129.035,215.121 128.927,214.725 128.758,214.429 C128.445,213.879 127.922,213.604 127.19,213.604 C126.666,213.604 126.225,213.793 125.87,214.172 C125.514,214.55 125.326,215.032 125.305,215.616 L129.082,215.616 M132.835,218.066 C133.144,218.557 133.639,218.802 134.32,218.802 C134.849,218.802 135.284,218.575 135.625,218.12 C135.965,217.665 136.136,217.012 136.136,216.162 C136.136,215.303 135.96,214.667 135.609,214.254 C135.257,213.842 134.824,213.635 134.307,213.635 C133.732,213.635 133.265,213.855 132.908,214.295 C132.55,214.736 132.371,215.383 132.371,216.238 C132.371,216.966 132.526,217.575 132.835,218.066 M135.399,212.969 C135.602,213.096 135.833,213.318 136.091,213.635 L136.091,210.201 L137.189,210.201 L137.189,219.558 L136.161,219.558 L136.161,218.612 C135.894,219.031 135.579,219.333 135.215,219.52 C134.851,219.706 134.434,219.799 133.965,219.799 C133.207,219.799 132.551,219.48 131.997,218.844 C131.443,218.207 131.165,217.359 131.165,216.301 C131.165,215.311 131.418,214.453 131.924,213.727 C132.43,213.002 133.152,212.639 134.092,212.639 C134.612,212.639 135.048,212.749 135.399,212.969 Z" style="stroke:none;fill-rule:nonzero;fill:#000000;fill-opacity:1;"/>
        </g>
        <g id="Shape7">
            <desc shapeID="7" type="2" basicInfo-basicType="0" basicInfo-roundedRectRadius="12" basicInfo-polygonSides="6" basicInfo-starPoints="5" bounding="rect(-23.8939,-8.49561,47.7878,16.9912)" text="modified&#10;(bracked)" font-familyName="Helvetica" font-pixelSize="13" font-bold="0" font-underline="0" font-alignment="1" strokeStyle="0" markerStart="0" markerEnd="0" shadowEnabled="0" shadowOffsetX="0" shadowOffsetY="2" shadowBlur="4" shadowOpacity="160" blurEnabled="0" blurRadius="4" transform="matrix(1,0,0,1,198.013,173.078)" pers-center="0,0" pers-size="0,0" pers-start="0,0" pers-end="0,0" locked="0" mesh="" flag=""/>
            <path id="shapePath7" d="M174.32,162.795 L175.45,162.795 L175.45,163.76 C175.72,163.426 175.966,163.182 176.186,163.03 C176.562,162.772 176.99,162.643 177.468,162.643 C178.01,162.643 178.446,162.776 178.776,163.043 C178.962,163.195 179.131,163.419 179.284,163.716 C179.537,163.352 179.836,163.082 180.179,162.906 C180.521,162.731 180.906,162.643 181.334,162.643 C182.248,162.643 182.87,162.973 183.2,163.633 C183.378,163.989 183.467,164.467 183.467,165.068 L183.467,169.594 L182.28,169.594 L182.28,164.871 C182.28,164.418 182.166,164.107 181.94,163.938 C181.714,163.769 181.437,163.684 181.112,163.684 C180.663,163.684 180.277,163.834 179.953,164.135 C179.629,164.435 179.468,164.937 179.468,165.639 L179.468,169.594 L178.306,169.594 L178.306,165.157 C178.306,164.695 178.251,164.359 178.141,164.147 C177.967,163.83 177.644,163.671 177.17,163.671 C176.738,163.671 176.346,163.838 175.992,164.173 C175.639,164.507 175.462,165.112 175.462,165.988 L175.462,169.594 L174.32,169.594 L174.32,162.795 M189.404,167.997 C189.685,167.424 189.826,166.786 189.826,166.083 C189.826,165.449 189.724,164.932 189.521,164.535 C189.2,163.908 188.645,163.595 187.858,163.595 C187.16,163.595 186.652,163.862 186.335,164.395 C186.017,164.928 185.859,165.571 185.859,166.325 C185.859,167.048 186.017,167.651 186.335,168.134 C186.652,168.616 187.156,168.857 187.846,168.857 C188.603,168.857 189.122,168.571 189.404,167.997 M190.112,163.474 C190.717,164.058 191.019,164.918 191.019,166.052 C191.019,167.148 190.753,168.053 190.22,168.768 C189.686,169.484 188.859,169.841 187.738,169.841 C186.802,169.841 186.06,169.525 185.51,168.892 C184.959,168.26 184.684,167.41 184.684,166.344 C184.684,165.201 184.974,164.291 185.554,163.614 C186.134,162.937 186.912,162.599 187.89,162.599 C188.766,162.599 189.506,162.891 190.112,163.474 M193.554,168.102 C193.862,168.593 194.358,168.838 195.039,168.838 C195.568,168.838 196.003,168.611 196.343,168.156 C196.684,167.701 196.854,167.048 196.854,166.198 C196.854,165.339 196.679,164.703 196.327,164.29 C195.976,163.878 195.542,163.671 195.026,163.671 C194.451,163.671 193.984,163.891 193.627,164.331 C193.269,164.772 193.09,165.419 193.09,166.274 C193.09,167.002 193.245,167.611 193.554,168.102 M196.118,163.005 C196.321,163.132 196.552,163.354 196.81,163.671 L196.81,160.237 L197.908,160.237 L197.908,169.594 L196.88,169.594 L196.88,168.648 C196.613,169.067 196.298,169.369 195.934,169.556 C195.57,169.742 195.153,169.835 194.683,169.835 C193.926,169.835 193.27,169.516 192.716,168.88 C192.161,168.243 191.884,167.395 191.884,166.337 C191.884,165.347 192.137,164.489 192.643,163.763 C193.148,163.038 193.871,162.675 194.81,162.675 C195.331,162.675 195.767,162.785 196.118,163.005 M199.585,162.827 L200.747,162.827 L200.747,169.594 L199.585,169.594 L199.585,162.827 M199.585,160.269 L200.747,160.269 L200.747,161.564 L199.585,161.564 L199.585,160.269 M202.993,160.72 C203.26,160.33 203.774,160.136 204.536,160.136 C204.608,160.136 204.682,160.138 204.758,160.142 C204.834,160.146 204.921,160.153 205.018,160.161 L205.018,161.202 C204.9,161.194 204.814,161.188 204.761,161.186 C204.708,161.184 204.659,161.183 204.612,161.183 C204.265,161.183 204.058,161.273 203.99,161.453 C203.922,161.633 203.888,162.091 203.888,162.827 L205.018,162.827 L205.018,163.728 L203.876,163.728 L203.876,169.594 L202.746,169.594 L202.746,163.728 L201.8,163.728 L201.8,162.827 L202.746,162.827 L202.746,161.761 C202.763,161.287 202.845,160.94 202.993,160.72 M206.117,161.564 L206.117,160.269 L207.259,160.269 L207.259,161.564 L206.117,161.564 M206.117,162.827 L207.259,162.827 L207.259,169.594 L206.117,169.594 L206.117,162.827 M213.194,162.983 C213.647,163.209 213.992,163.502 214.229,163.862 C214.457,164.204 214.61,164.604 214.686,165.061 C214.754,165.375 214.787,165.874 214.787,166.559 L209.805,166.559 C209.826,167.249 209.989,167.803 210.293,168.219 C210.598,168.636 211.07,168.845 211.709,168.845 C212.305,168.845 212.782,168.648 213.137,168.254 C213.34,168.026 213.484,167.761 213.569,167.461 L214.692,167.461 C214.663,167.71 214.564,167.989 214.397,168.296 C214.23,168.602 214.043,168.853 213.835,169.048 C213.488,169.386 213.059,169.615 212.547,169.733 C212.272,169.801 211.961,169.835 211.614,169.835 C210.767,169.835 210.05,169.527 209.462,168.911 C208.874,168.296 208.579,167.433 208.579,166.325 C208.579,165.233 208.876,164.346 209.468,163.665 C210.061,162.984 210.835,162.643 211.791,162.643 C212.274,162.643 212.741,162.756 213.194,162.983 M213.613,165.652 C213.567,165.157 213.459,164.761 213.289,164.465 C212.976,163.915 212.454,163.64 211.721,163.64 C211.197,163.64 210.757,163.829 210.401,164.208 C210.046,164.586 209.857,165.068 209.836,165.652 L213.613,165.652 M217.366,168.102 C217.675,168.593 218.17,168.838 218.851,168.838 C219.38,168.838 219.815,168.611 220.156,168.156 C220.496,167.701 220.667,167.048 220.667,166.198 C220.667,165.339 220.491,164.703 220.14,164.29 C219.789,163.878 219.355,163.671 218.839,163.671 C218.263,163.671 217.797,163.891 217.439,164.331 C217.081,164.772 216.903,165.419 216.903,166.274 C216.903,167.002 217.057,167.611 217.366,168.102 M219.93,163.005 C220.134,163.132 220.364,163.354 220.622,163.671 L220.622,160.237 L221.721,160.237 L221.721,169.594 L220.692,169.594 L220.692,168.648 C220.426,169.067 220.11,169.369 219.746,169.556 C219.382,169.742 218.966,169.835 218.496,169.835 C217.738,169.835 217.083,169.516 216.528,168.88 C215.974,168.243 215.697,167.395 215.697,166.337 C215.697,165.347 215.949,164.489 216.455,163.763 C216.961,163.038 217.683,162.675 218.623,162.675 C219.143,162.675 219.579,162.785 219.93,163.005 M174.438,173.117 C173.773,174.407 173.342,175.357 173.143,175.967 C172.842,176.893 172.692,177.964 172.692,179.179 C172.692,180.406 172.864,181.527 173.206,182.543 C173.418,183.169 173.835,184.071 174.457,185.247 L173.689,185.247 C173.071,184.282 172.688,183.666 172.54,183.4 C172.392,183.133 172.231,182.771 172.057,182.314 C171.82,181.688 171.655,181.019 171.562,180.308 C171.516,179.94 171.492,179.589 171.492,179.255 C171.492,178.002 171.689,176.887 172.083,175.91 C172.333,175.287 172.853,174.356 173.644,173.117 L174.438,173.117 M175.668,173.237 L176.779,173.237 L176.779,176.62 C177.029,176.295 177.327,176.046 177.674,175.875 C178.021,175.703 178.398,175.618 178.804,175.618 C179.65,175.618 180.337,175.908 180.864,176.49 C181.391,177.072 181.654,177.93 181.654,179.064 C181.654,180.139 181.394,181.032 180.873,181.743 C180.353,182.454 179.631,182.809 178.709,182.809 C178.193,182.809 177.757,182.685 177.401,182.435 C177.19,182.287 176.963,182.05 176.722,181.724 L176.722,182.594 L175.668,182.594 L175.668,173.237 M180.026,181.064 C180.333,180.573 180.486,179.925 180.486,179.121 C180.486,178.406 180.333,177.814 180.026,177.344 C179.719,176.874 179.267,176.64 178.671,176.64 C178.15,176.64 177.694,176.832 177.303,177.217 C176.911,177.602 176.716,178.237 176.716,179.121 C176.716,179.76 176.796,180.279 176.957,180.677 C177.257,181.426 177.818,181.8 178.639,181.8 C179.257,181.8 179.719,181.555 180.026,181.064 M183.008,175.795 L184.093,175.795 L184.093,176.97 C184.182,176.741 184.4,176.463 184.747,176.135 C185.094,175.807 185.494,175.643 185.947,175.643 C185.968,175.643 186.004,175.645 186.055,175.649 C186.105,175.654 186.192,175.662 186.315,175.675 L186.315,176.881 C186.247,176.868 186.185,176.86 186.128,176.855 C186.07,176.851 186.008,176.849 185.94,176.849 C185.365,176.849 184.923,177.034 184.614,177.404 C184.305,177.775 184.15,178.201 184.15,178.683 L184.15,182.594 L183.008,182.594 L183.008,175.795 M188.542,181.565 C188.783,181.756 189.069,181.851 189.399,181.851 C189.801,181.851 190.19,181.758 190.567,181.572 C191.201,181.263 191.519,180.757 191.519,180.055 L191.519,179.134 C191.379,179.223 191.199,179.297 190.979,179.356 C190.759,179.416 190.543,179.458 190.332,179.483 L189.64,179.572 C189.225,179.627 188.914,179.714 188.707,179.832 C188.356,180.031 188.18,180.349 188.18,180.785 C188.18,181.115 188.301,181.375 188.542,181.565 M190.948,178.474 C191.21,178.44 191.386,178.33 191.474,178.144 C191.525,178.042 191.551,177.896 191.551,177.706 C191.551,177.317 191.412,177.034 191.135,176.859 C190.858,176.683 190.461,176.595 189.945,176.595 C189.348,176.595 188.925,176.756 188.675,177.078 C188.535,177.255 188.444,177.52 188.402,177.871 L187.336,177.871 C187.357,177.033 187.629,176.45 188.151,176.122 C188.674,175.794 189.28,175.63 189.97,175.63 C190.77,175.63 191.419,175.783 191.919,176.087 C192.414,176.392 192.661,176.866 192.661,177.509 L192.661,181.426 C192.661,181.544 192.686,181.639 192.734,181.711 C192.783,181.783 192.886,181.819 193.042,181.819 C193.093,181.819 193.15,181.816 193.214,181.81 C193.277,181.803 193.345,181.794 193.417,181.781 L193.417,182.625 C193.239,182.676 193.104,182.708 193.011,182.721 C192.917,182.733 192.791,182.74 192.63,182.74 C192.236,182.74 191.951,182.6 191.773,182.321 C191.68,182.173 191.614,181.963 191.576,181.692 C191.343,181.997 191.009,182.261 190.573,182.486 C190.137,182.71 189.657,182.822 189.132,182.822 C188.502,182.822 187.986,182.631 187.586,182.248 C187.187,181.865 186.987,181.385 186.987,180.81 C186.987,180.179 187.183,179.691 187.577,179.344 C187.971,178.997 188.487,178.783 189.126,178.703 L190.948,178.474 M199.014,176.157 C199.494,176.529 199.783,177.171 199.88,178.08 L198.769,178.08 C198.702,177.661 198.547,177.313 198.306,177.036 C198.065,176.759 197.678,176.62 197.144,176.62 C196.416,176.62 195.896,176.976 195.583,177.687 C195.38,178.148 195.278,178.717 195.278,179.394 C195.278,180.076 195.422,180.649 195.71,181.115 C195.998,181.58 196.45,181.813 197.068,181.813 C197.542,181.813 197.918,181.668 198.195,181.378 C198.472,181.088 198.664,180.691 198.769,180.188 L199.88,180.188 C199.753,181.089 199.436,181.748 198.928,182.165 C198.42,182.582 197.771,182.79 196.979,182.79 C196.091,182.79 195.382,182.466 194.853,181.816 C194.324,181.166 194.059,180.355 194.059,179.382 C194.059,178.188 194.349,177.259 194.929,176.595 C195.509,175.931 196.247,175.599 197.144,175.599 C197.91,175.599 198.533,175.785 199.014,176.157 M200.997,173.269 L202.096,173.269 L202.096,178.683 L205.028,175.795 L206.488,175.795 L203.886,178.341 L206.634,182.594 L205.174,182.594 L203.054,179.166 L202.096,180.042 L202.096,182.594 L200.997,182.594 L200.997,173.269 M211.757,175.983 C212.209,176.209 212.554,176.502 212.791,176.862 C213.02,177.204 213.172,177.604 213.248,178.061 C213.316,178.375 213.35,178.874 213.35,179.559 L208.367,179.559 C208.388,180.249 208.551,180.803 208.856,181.219 C209.16,181.636 209.632,181.845 210.271,181.845 C210.868,181.845 211.344,181.648 211.7,181.254 C211.903,181.026 212.047,180.761 212.131,180.461 L213.255,180.461 C213.225,180.71 213.127,180.989 212.96,181.296 C212.792,181.602 212.605,181.853 212.398,182.048 C212.051,182.386 211.621,182.615 211.109,182.733 C210.834,182.801 210.523,182.835 210.176,182.835 C209.33,182.835 208.612,182.527 208.024,181.911 C207.436,181.296 207.142,180.433 207.142,179.325 C207.142,178.233 207.438,177.346 208.031,176.665 C208.623,175.984 209.397,175.643 210.354,175.643 C210.836,175.643 211.304,175.756 211.757,175.983 M212.176,178.652 C212.129,178.157 212.021,177.761 211.852,177.465 C211.539,176.915 211.016,176.64 210.284,176.64 C209.759,176.64 209.319,176.829 208.964,177.208 C208.608,177.586 208.42,178.068 208.399,178.652 L212.176,178.652 M215.929,181.102 C216.237,181.593 216.733,181.838 217.414,181.838 C217.943,181.838 218.378,181.611 218.718,181.156 C219.059,180.701 219.229,180.048 219.229,179.198 C219.229,178.339 219.054,177.703 218.702,177.29 C218.351,176.878 217.917,176.671 217.401,176.671 C216.826,176.671 216.359,176.891 216.002,177.331 C215.644,177.772 215.465,178.419 215.465,179.274 C215.465,180.002 215.62,180.611 215.929,181.102 M218.493,176.005 C218.696,176.132 218.927,176.354 219.185,176.671 L219.185,173.237 L220.283,173.237 L220.283,182.594 L219.255,182.594 L219.255,181.648 C218.988,182.067 218.673,182.369 218.309,182.556 C217.945,182.742 217.528,182.835 217.058,182.835 C216.301,182.835 215.645,182.516 215.091,181.88 C214.536,181.243 214.259,180.395 214.259,179.337 C214.259,178.347 214.512,177.489 215.018,176.763 C215.523,176.038 216.246,175.675 217.185,175.675 C217.706,175.675 218.142,175.785 218.493,176.005 M221.573,185.247 C222.246,183.935 222.68,182.979 222.874,182.378 C223.171,181.468 223.319,180.402 223.319,179.179 C223.319,177.956 223.147,176.836 222.805,175.821 C222.593,175.194 222.176,174.293 221.554,173.117 L222.322,173.117 C222.974,174.158 223.368,174.8 223.506,175.043 C223.643,175.286 223.793,175.622 223.953,176.049 C224.157,176.578 224.301,177.101 224.388,177.617 C224.475,178.133 224.518,178.631 224.518,179.109 C224.518,180.361 224.319,181.479 223.922,182.46 C223.672,183.091 223.154,184.02 222.367,185.247 L221.573,185.247 Z" style="stroke:none;fill-rule:nonzero;fill:#000000;fill-opacity:1;"/>
        </g>
        <g id="Shape8">
            <desc shapeID="8" type="2" basicInfo-basicType="0" basicInfo-roundedRectRadius="12" basicInfo-polygonSides="6" basicInfo-starPoints="5" bounding="rect(-23.8939,-8.49561,47.7878,16.9912)" text="unmodified&#10;(tracked)" font-familyName="Helvetica" font-pixelSize="13" font-bold="0" font-underline="0" font-alignment="1" strokeStyle="0" markerStart="0" markerEnd="0" shadowEnabled="0" shadowOffsetX="0" shadowOffsetY="2" shadowBlur="4" shadowOpacity="160" blurEnabled="0" blurRadius="4" transform="matrix(1,0,0,1,198.013,273.042)" pers-center="0,0" pers-size="0,0" pers-start="0,0" pers-end="0,0" locked="0" mesh="" flag=""/>
            <path id="shapePath8" d="M168.243,262.759 L168.243,267.272 C168.243,267.619 168.298,267.903 168.409,268.123 C168.612,268.529 168.99,268.732 169.545,268.732 C170.34,268.732 170.882,268.377 171.17,267.666 C171.326,267.285 171.405,266.763 171.405,266.098 L171.405,262.759 L172.547,262.759 L172.547,269.558 L171.468,269.558 L171.481,268.555 C171.333,268.813 171.149,269.031 170.929,269.208 C170.493,269.564 169.964,269.742 169.342,269.742 C168.373,269.742 167.712,269.418 167.361,268.771 C167.171,268.423 167.076,267.96 167.076,267.38 L167.076,262.759 L168.243,262.759 M174.32,262.759 L175.405,262.759 L175.405,263.724 C175.727,263.326 176.067,263.041 176.427,262.867 C176.787,262.694 177.187,262.607 177.627,262.607 C178.592,262.607 179.243,262.943 179.582,263.616 C179.768,263.984 179.861,264.511 179.861,265.197 L179.861,269.558 L178.7,269.558 L178.7,265.273 C178.7,264.858 178.638,264.524 178.515,264.27 C178.312,263.847 177.944,263.635 177.411,263.635 C177.14,263.635 176.918,263.663 176.744,263.718 C176.431,263.811 176.156,263.997 175.919,264.276 C175.729,264.501 175.605,264.732 175.548,264.971 C175.491,265.211 175.462,265.552 175.462,265.997 L175.462,269.558 L174.32,269.558 L174.32,262.759 M181.538,262.759 L182.668,262.759 L182.668,263.724 C182.939,263.39 183.185,263.146 183.405,262.994 C183.781,262.736 184.209,262.607 184.687,262.607 C185.229,262.607 185.664,262.74 185.994,263.007 C186.181,263.159 186.35,263.383 186.502,263.68 C186.756,263.316 187.055,263.046 187.397,262.87 C187.74,262.695 188.125,262.607 188.553,262.607 C189.467,262.607 190.089,262.937 190.419,263.597 C190.596,263.953 190.685,264.431 190.685,265.032 L190.685,269.558 L189.498,269.558 L189.498,264.835 C189.498,264.382 189.385,264.071 189.159,263.902 C188.932,263.733 188.656,263.648 188.33,263.648 C187.882,263.648 187.496,263.798 187.172,264.099 C186.848,264.399 186.686,264.901 186.686,265.603 L186.686,269.558 L185.525,269.558 L185.525,265.121 C185.525,264.659 185.47,264.323 185.36,264.111 C185.186,263.794 184.862,263.635 184.388,263.635 C183.957,263.635 183.564,263.802 183.211,264.137 C182.858,264.471 182.681,265.076 182.681,265.952 L182.681,269.558 L181.538,269.558 L181.538,262.759 M196.623,267.961 C196.904,267.388 197.045,266.75 197.045,266.047 C197.045,265.413 196.943,264.896 196.74,264.499 C196.418,263.872 195.864,263.559 195.077,263.559 C194.379,263.559 193.871,263.826 193.554,264.359 C193.236,264.892 193.077,265.535 193.077,266.289 C193.077,267.012 193.236,267.615 193.554,268.098 C193.871,268.58 194.374,268.821 195.064,268.821 C195.822,268.821 196.341,268.535 196.623,267.961 M197.33,263.438 C197.936,264.022 198.238,264.882 198.238,266.016 C198.238,267.112 197.971,268.017 197.438,268.732 C196.905,269.448 196.078,269.805 194.956,269.805 C194.021,269.805 193.278,269.489 192.728,268.856 C192.178,268.224 191.903,267.374 191.903,266.308 C191.903,265.165 192.193,264.255 192.773,263.578 C193.353,262.901 194.131,262.562 195.109,262.562 C195.985,262.562 196.725,262.854 197.33,263.438 M200.772,268.066 C201.081,268.557 201.576,268.802 202.258,268.802 C202.787,268.802 203.221,268.575 203.562,268.12 C203.903,267.665 204.073,267.012 204.073,266.162 C204.073,265.303 203.897,264.667 203.546,264.254 C203.195,263.842 202.761,263.635 202.245,263.635 C201.669,263.635 201.203,263.855 200.845,264.295 C200.488,264.736 200.309,265.383 200.309,266.238 C200.309,266.966 200.463,267.575 200.772,268.066 M203.337,262.969 C203.54,263.096 203.77,263.318 204.029,263.635 L204.029,260.201 L205.127,260.201 L205.127,269.558 L204.098,269.558 L204.098,268.612 C203.832,269.031 203.517,269.333 203.153,269.52 C202.789,269.706 202.372,269.799 201.902,269.799 C201.145,269.799 200.489,269.48 199.934,268.844 C199.38,268.207 199.103,267.359 199.103,266.301 C199.103,265.311 199.356,264.453 199.861,263.727 C200.367,263.002 201.09,262.639 202.029,262.639 C202.55,262.639 202.985,262.749 203.337,262.969 M206.804,262.791 L207.966,262.791 L207.966,269.558 L206.804,269.558 L206.804,262.791 M206.804,260.233 L207.966,260.233 L207.966,261.528 L206.804,261.528 L206.804,260.233 M210.212,260.684 C210.479,260.294 210.993,260.1 211.755,260.1 C211.827,260.1 211.901,260.102 211.977,260.106 C212.053,260.11 212.14,260.117 212.237,260.125 L212.237,261.166 C212.119,261.158 212.033,261.152 211.98,261.15 C211.927,261.148 211.877,261.147 211.831,261.147 C211.484,261.147 211.277,261.237 211.209,261.417 C211.141,261.597 211.107,262.055 211.107,262.791 L212.237,262.791 L212.237,263.692 L211.095,263.692 L211.095,269.558 L209.965,269.558 L209.965,263.692 L209.019,263.692 L209.019,262.791 L209.965,262.791 L209.965,261.725 C209.982,261.251 210.064,260.904 210.212,260.684 M213.335,261.528 L213.335,260.233 L214.478,260.233 L214.478,261.528 L213.335,261.528 M213.335,262.791 L214.478,262.791 L214.478,269.558 L213.335,269.558 L213.335,262.791 M220.413,262.947 C220.866,263.173 221.211,263.466 221.448,263.826 C221.676,264.168 221.828,264.568 221.905,265.025 C221.972,265.339 222.006,265.838 222.006,266.523 L217.023,266.523 C217.044,267.213 217.207,267.767 217.512,268.183 C217.817,268.6 218.289,268.809 218.928,268.809 C219.524,268.809 220,268.612 220.356,268.218 C220.559,267.99 220.703,267.725 220.787,267.425 L221.911,267.425 C221.881,267.674 221.783,267.953 221.616,268.26 C221.449,268.566 221.261,268.817 221.054,269.012 C220.707,269.35 220.277,269.579 219.765,269.697 C219.49,269.765 219.179,269.799 218.832,269.799 C217.986,269.799 217.269,269.491 216.68,268.875 C216.092,268.26 215.798,267.397 215.798,266.289 C215.798,265.197 216.094,264.31 216.687,263.629 C217.279,262.948 218.054,262.607 219.01,262.607 C219.492,262.607 219.96,262.72 220.413,262.947 M220.832,265.616 C220.785,265.121 220.677,264.725 220.508,264.429 C220.195,263.879 219.672,263.604 218.94,263.604 C218.416,263.604 217.975,263.793 217.62,264.172 C217.264,264.55 217.076,265.032 217.055,265.616 L220.832,265.616 M224.585,268.066 C224.894,268.557 225.389,268.802 226.07,268.802 C226.599,268.802 227.034,268.575 227.375,268.12 C227.715,267.665 227.886,267.012 227.886,266.162 C227.886,265.303 227.71,264.667 227.359,264.254 C227.007,263.842 226.574,263.635 226.057,263.635 C225.482,263.635 225.015,263.855 224.658,264.295 C224.3,264.736 224.121,265.383 224.121,266.238 C224.121,266.966 224.276,267.575 224.585,268.066 M227.149,262.969 C227.352,263.096 227.583,263.318 227.841,263.635 L227.841,260.201 L228.939,260.201 L228.939,269.558 L227.911,269.558 L227.911,268.612 C227.644,269.031 227.329,269.333 226.965,269.52 C226.601,269.706 226.184,269.799 225.715,269.799 C224.957,269.799 224.301,269.48 223.747,268.844 C223.193,268.207 222.915,267.359 222.915,266.301 C222.915,265.311 223.168,264.453 223.674,263.727 C224.18,263.002 224.902,262.639 225.842,262.639 C226.362,262.639 226.798,262.749 227.149,262.969 M176.235,273.081 C175.57,274.371 175.139,275.321 174.94,275.931 C174.639,276.857 174.489,277.928 174.489,279.143 C174.489,280.37 174.66,281.491 175.003,282.507 C175.215,283.133 175.632,284.035 176.254,285.211 L175.486,285.211 C174.868,284.246 174.485,283.63 174.337,283.364 C174.189,283.097 174.028,282.735 173.854,282.278 C173.617,281.652 173.452,280.983 173.359,280.272 C173.313,279.904 173.289,279.553 173.289,279.219 C173.289,277.966 173.486,276.851 173.88,275.874 C174.129,275.251 174.65,274.32 175.441,273.081 L176.235,273.081 M177.783,273.861 L178.938,273.861 L178.938,275.759 L180.023,275.759 L180.023,276.692 L178.938,276.692 L178.938,281.129 C178.938,281.366 179.018,281.525 179.179,281.605 C179.268,281.652 179.416,281.675 179.623,281.675 C179.678,281.675 179.738,281.674 179.801,281.672 C179.865,281.67 179.939,281.665 180.023,281.656 L180.023,282.558 C179.892,282.596 179.756,282.623 179.614,282.64 C179.472,282.657 179.319,282.666 179.154,282.666 C178.62,282.666 178.259,282.529 178.068,282.256 C177.878,281.983 177.783,281.629 177.783,281.193 L177.783,276.692 L176.862,276.692 L176.862,275.759 L177.783,275.759 L177.783,273.861 M181.195,275.759 L182.281,275.759 L182.281,276.934 C182.369,276.705 182.587,276.427 182.934,276.099 C183.281,275.771 183.681,275.607 184.134,275.607 C184.155,275.607 184.191,275.609 184.242,275.613 C184.293,275.618 184.38,275.626 184.502,275.639 L184.502,276.845 C184.435,276.832 184.372,276.824 184.315,276.819 C184.258,276.815 184.195,276.813 184.128,276.813 C183.552,276.813 183.11,276.998 182.801,277.368 C182.492,277.739 182.338,278.165 182.338,278.647 L182.338,282.558 L181.195,282.558 L181.195,275.759 M186.729,281.529 C186.971,281.72 187.256,281.815 187.586,281.815 C187.988,281.815 188.378,281.722 188.754,281.536 C189.389,281.227 189.706,280.721 189.706,280.019 L189.706,279.098 C189.567,279.187 189.387,279.261 189.167,279.32 C188.947,279.38 188.731,279.422 188.519,279.447 L187.827,279.536 C187.413,279.591 187.102,279.678 186.894,279.796 C186.543,279.995 186.367,280.313 186.367,280.749 C186.367,281.079 186.488,281.339 186.729,281.529 M189.135,278.438 C189.397,278.404 189.573,278.294 189.662,278.108 C189.713,278.006 189.738,277.86 189.738,277.67 C189.738,277.281 189.6,276.998 189.322,276.823 C189.045,276.647 188.648,276.559 188.132,276.559 C187.535,276.559 187.112,276.72 186.863,277.042 C186.723,277.219 186.632,277.484 186.59,277.835 L185.523,277.835 C185.544,276.997 185.816,276.414 186.339,276.086 C186.862,275.758 187.468,275.594 188.158,275.594 C188.957,275.594 189.607,275.747 190.106,276.051 C190.601,276.356 190.849,276.83 190.849,277.473 L190.849,281.39 C190.849,281.508 190.873,281.603 190.922,281.675 C190.971,281.747 191.073,281.783 191.23,281.783 C191.281,281.783 191.338,281.78 191.401,281.774 C191.465,281.767 191.532,281.758 191.604,281.745 L191.604,282.589 C191.427,282.64 191.291,282.672 191.198,282.685 C191.105,282.697 190.978,282.704 190.817,282.704 C190.424,282.704 190.138,282.564 189.96,282.285 C189.867,282.137 189.802,281.927 189.763,281.656 C189.531,281.961 189.196,282.225 188.761,282.45 C188.325,282.674 187.844,282.786 187.32,282.786 C186.689,282.786 186.174,282.595 185.774,282.212 C185.374,281.829 185.174,281.349 185.174,280.774 C185.174,280.143 185.371,279.655 185.764,279.308 C186.158,278.961 186.674,278.747 187.313,278.667 L189.135,278.438 M197.201,276.121 C197.682,276.493 197.97,277.135 198.068,278.044 L196.957,278.044 C196.889,277.625 196.735,277.277 196.493,277 C196.252,276.723 195.865,276.584 195.332,276.584 C194.604,276.584 194.083,276.94 193.77,277.651 C193.567,278.112 193.466,278.681 193.466,279.358 C193.466,280.04 193.61,280.613 193.897,281.079 C194.185,281.544 194.638,281.777 195.256,281.777 C195.73,281.777 196.105,281.632 196.382,281.342 C196.66,281.052 196.851,280.655 196.957,280.152 L198.068,280.152 C197.941,281.053 197.623,281.712 197.116,282.129 C196.608,282.546 195.958,282.754 195.167,282.754 C194.278,282.754 193.569,282.43 193.04,281.78 C192.511,281.13 192.247,280.319 192.247,279.346 C192.247,278.152 192.537,277.223 193.117,276.559 C193.696,275.895 194.435,275.562 195.332,275.562 C196.098,275.562 196.721,275.749 197.201,276.121 M199.185,273.233 L200.283,273.233 L200.283,278.647 L203.216,275.759 L204.676,275.759 L202.073,278.305 L204.822,282.558 L203.362,282.558 L201.242,279.13 L200.283,280.006 L200.283,282.558 L199.185,282.558 L199.185,273.233 M209.944,275.947 C210.397,276.173 210.742,276.466 210.979,276.826 C211.207,277.168 211.36,277.568 211.436,278.025 C211.504,278.339 211.537,278.838 211.537,279.523 L206.555,279.523 C206.576,280.213 206.739,280.767 207.043,281.183 C207.348,281.6 207.82,281.809 208.459,281.809 C209.055,281.809 209.532,281.612 209.887,281.218 C210.09,280.99 210.234,280.725 210.319,280.425 L211.442,280.425 C211.413,280.674 211.314,280.953 211.147,281.26 C210.98,281.566 210.793,281.817 210.585,282.012 C210.238,282.35 209.809,282.579 209.297,282.697 C209.022,282.765 208.711,282.799 208.364,282.799 C207.517,282.799 206.8,282.491 206.212,281.875 C205.624,281.26 205.329,280.397 205.329,279.289 C205.329,278.197 205.626,277.31 206.218,276.629 C206.811,275.948 207.585,275.607 208.541,275.607 C209.024,275.607 209.491,275.72 209.944,275.947 M210.363,278.616 C210.317,278.121 210.209,277.725 210.039,277.429 C209.726,276.879 209.204,276.604 208.471,276.604 C207.947,276.604 207.507,276.793 207.151,277.172 C206.796,277.55 206.607,278.032 206.586,278.616 L210.363,278.616 M214.116,281.066 C214.425,281.557 214.92,281.802 215.601,281.802 C216.13,281.802 216.565,281.575 216.906,281.12 C217.246,280.665 217.417,280.012 217.417,279.162 C217.417,278.303 217.241,277.667 216.89,277.254 C216.539,276.842 216.105,276.635 215.589,276.635 C215.013,276.635 214.547,276.855 214.189,277.295 C213.831,277.736 213.653,278.383 213.653,279.238 C213.653,279.966 213.807,280.575 214.116,281.066 M216.68,275.969 C216.884,276.096 217.114,276.318 217.372,276.635 L217.372,273.201 L218.471,273.201 L218.471,282.558 L217.442,282.558 L217.442,281.612 C217.176,282.031 216.86,282.333 216.496,282.52 C216.132,282.706 215.716,282.799 215.246,282.799 C214.488,282.799 213.833,282.48 213.278,281.844 C212.724,281.207 212.447,280.359 212.447,279.301 C212.447,278.311 212.699,277.453 213.205,276.727 C213.711,276.002 214.433,275.639 215.373,275.639 C215.893,275.639 216.329,275.749 216.68,275.969 M219.761,285.211 C220.433,283.899 220.867,282.943 221.062,282.342 C221.358,281.432 221.506,280.366 221.506,279.143 C221.506,277.92 221.335,276.8 220.992,275.785 C220.78,275.158 220.364,274.257 219.742,273.081 L220.51,273.081 C221.161,274.122 221.556,274.764 221.693,275.007 C221.831,275.25 221.98,275.586 222.141,276.013 C222.344,276.542 222.489,277.065 222.576,277.581 C222.662,278.097 222.706,278.595 222.706,279.073 C222.706,280.325 222.507,281.443 222.109,282.424 C221.86,283.055 221.341,283.984 220.554,285.211 L219.761,285.211 Z" style="stroke:none;fill-rule:nonzero;fill:#000000;fill-opacity:1;"/>
        </g>
        <g id="Shape9">
            <desc shapeID="9" type="0" basicInfo-basicType="2" basicInfo-roundedRectRadius="12" basicInfo-polygonSides="6" basicInfo-starPoints="5" bounding="rect(-53,-66.5,106,133)" text="" font-familyName="Helvetica" font-pixelSize="20" font-bold="0" font-underline="0" font-alignment="1" strokeStyle="0" markerStart="0" markerEnd="0" shadowEnabled="0" shadowOffsetX="0" shadowOffsetY="2" shadowBlur="4" shadowOpacity="160" blurEnabled="0" blurRadius="4" transform="matrix(1,0,0,1,361.5,218.711)" pers-center="0,0" pers-size="0,0" pers-start="0,0" pers-end="0,0" locked="0" mesh="" flag=""/>
            <path id="shapePath9" d="M308.5,164.211 C308.5,157.584 313.873,152.211 320.5,152.211 L402.5,152.211 C409.127,152.211 414.5,157.584 414.5,164.211 L414.5,273.211 C414.5,279.838 409.127,285.211 402.5,285.211 L320.5,285.211 C313.873,285.211 308.5,279.838 308.5,273.211 L308.5,164.211 Z" style="stroke:#323232;stroke-opacity:1;stroke-width:1;stroke-linejoin:miter;stroke-miterlimit:2;stroke-linecap:round;fill-rule:evenodd;fill:#e6e6e6;fill-opacity:1;"/>
        </g>
        <g id="Shape10">
            <desc shapeID="10" type="0" basicInfo-basicType="2" basicInfo-roundedRectRadius="12" basicInfo-polygonSides="6" basicInfo-starPoints="5" bounding="rect(-53,-66.5,106,133)" text="" font-familyName="Helvetica" font-pixelSize="20" font-bold="0" font-underline="0" font-alignment="1" strokeStyle="0" markerStart="0" markerEnd="0" shadowEnabled="0" shadowOffsetX="0" shadowOffsetY="2" shadowBlur="4" shadowOpacity="160" blurEnabled="0" blurRadius="4" transform="matrix(1,0,0,1,507,219.799)" pers-center="0,0" pers-size="0,0" pers-start="0,0" pers-end="0,0" locked="0" mesh="" flag=""/>
            <path id="shapePath10" d="M454,165.299 C454,158.671 459.373,153.299 466,153.299 L548,153.299 C554.627,153.299 560,158.671 560,165.299 L560,274.299 C560,280.926 554.627,286.299 548,286.299 L466,286.299 C459.373,286.299 454,280.926 454,274.299 L454,165.299 Z" style="stroke:#323232;stroke-opacity:1;stroke-width:1;stroke-linejoin:miter;stroke-miterlimit:2;stroke-linecap:round;fill-rule:evenodd;fill:#c6c6c6;fill-opacity:1;"/>
        </g>
        <g id="Shape11">
            <desc shapeID="11" type="2" basicInfo-basicType="0" basicInfo-roundedRectRadius="12" basicInfo-polygonSides="6" basicInfo-starPoints="5" bounding="rect(-23.8939,-8.49561,47.7878,16.9912)" text="staged&#10;(index)" font-familyName="Helvetica" font-pixelSize="13" font-bold="0" font-underline="0" font-alignment="1" strokeStyle="0" markerStart="0" markerEnd="0" shadowEnabled="0" shadowOffsetX="0" shadowOffsetY="2" shadowBlur="4" shadowOpacity="160" blurEnabled="0" blurRadius="4" transform="matrix(1,0,0,1,357,172.423)" pers-center="0,0" pers-size="0,0" pers-start="0,0" pers-end="0,0" locked="0" mesh="" flag=""/>
            <path id="shapePath11" d="M339.033,166.806 C339.067,167.186 339.162,167.478 339.318,167.681 C339.606,168.05 340.105,168.234 340.816,168.234 C341.24,168.234 341.612,168.142 341.934,167.958 C342.255,167.774 342.416,167.489 342.416,167.104 C342.416,166.812 342.287,166.59 342.029,166.437 C341.864,166.344 341.538,166.236 341.051,166.114 L340.144,165.885 C339.564,165.741 339.136,165.58 338.861,165.403 C338.37,165.094 338.125,164.666 338.125,164.12 C338.125,163.477 338.357,162.957 338.82,162.559 C339.283,162.161 339.907,161.962 340.689,161.962 C341.714,161.962 342.452,162.263 342.905,162.864 C343.188,163.244 343.326,163.655 343.317,164.095 L342.238,164.095 C342.217,163.837 342.126,163.602 341.965,163.39 C341.703,163.09 341.248,162.94 340.601,162.94 C340.169,162.94 339.842,163.022 339.62,163.187 C339.398,163.352 339.287,163.57 339.287,163.841 C339.287,164.137 339.433,164.374 339.725,164.552 C339.894,164.658 340.144,164.751 340.474,164.831 L341.229,165.015 C342.05,165.214 342.6,165.407 342.879,165.593 C343.324,165.885 343.546,166.344 343.546,166.971 C343.546,167.576 343.316,168.098 342.857,168.538 C342.398,168.979 341.699,169.199 340.759,169.199 C339.748,169.199 339.032,168.969 338.611,168.51 C338.19,168.051 337.964,167.483 337.935,166.806 L339.033,166.806 M345.082,160.242 L346.237,160.242 L346.237,162.14 L347.323,162.14 L347.323,163.073 L346.237,163.073 L346.237,167.51 C346.237,167.747 346.318,167.906 346.479,167.986 C346.567,168.033 346.715,168.056 346.923,168.056 C346.978,168.056 347.037,168.055 347.101,168.053 C347.164,168.051 347.238,168.045 347.323,168.037 L347.323,168.938 C347.192,168.976 347.055,169.004 346.913,169.021 C346.772,169.038 346.618,169.046 346.453,169.046 C345.92,169.046 345.558,168.91 345.368,168.637 C345.177,168.364 345.082,168.009 345.082,167.574 L345.082,163.073 L344.162,163.073 L344.162,162.14 L345.082,162.14 L345.082,160.242 M349.701,167.91 C349.942,168.1 350.228,168.196 350.558,168.196 C350.96,168.196 351.349,168.103 351.726,167.916 C352.36,167.607 352.678,167.102 352.678,166.399 L352.678,165.479 C352.538,165.568 352.358,165.642 352.138,165.701 C351.918,165.76 351.702,165.803 351.491,165.828 L350.799,165.917 C350.384,165.972 350.073,166.059 349.866,166.177 C349.514,166.376 349.339,166.693 349.339,167.129 C349.339,167.459 349.459,167.72 349.701,167.91 M352.106,164.819 C352.369,164.785 352.544,164.675 352.633,164.489 C352.684,164.387 352.709,164.241 352.709,164.051 C352.709,163.661 352.571,163.379 352.294,163.203 C352.017,163.028 351.62,162.94 351.104,162.94 C350.507,162.94 350.084,163.101 349.834,163.422 C349.694,163.6 349.603,163.864 349.561,164.216 L348.495,164.216 C348.516,163.378 348.788,162.795 349.31,162.467 C349.833,162.139 350.439,161.975 351.129,161.975 C351.929,161.975 352.578,162.127 353.078,162.432 C353.573,162.737 353.82,163.211 353.82,163.854 L353.82,167.77 C353.82,167.889 353.845,167.984 353.893,168.056 C353.942,168.128 354.045,168.164 354.201,168.164 C354.252,168.164 354.309,168.161 354.373,168.154 C354.436,168.148 354.504,168.139 354.576,168.126 L354.576,168.97 C354.398,169.021 354.263,169.053 354.169,169.065 C354.076,169.078 353.949,169.084 353.789,169.084 C353.395,169.084 353.109,168.945 352.932,168.665 C352.839,168.517 352.773,168.308 352.735,168.037 C352.502,168.342 352.168,168.606 351.732,168.83 C351.296,169.055 350.816,169.167 350.291,169.167 C349.66,169.167 349.145,168.975 348.745,168.592 C348.345,168.209 348.146,167.73 348.146,167.155 C348.146,166.524 348.342,166.035 348.736,165.688 C349.129,165.341 349.646,165.128 350.285,165.047 L352.106,164.819 M359.478,162.413 C359.693,162.561 359.913,162.777 360.138,163.06 L360.138,162.203 L361.191,162.203 L361.191,168.386 C361.191,169.249 361.064,169.931 360.811,170.43 C360.337,171.353 359.442,171.814 358.125,171.814 C357.393,171.814 356.778,171.65 356.278,171.322 C355.779,170.994 355.5,170.481 355.44,169.783 L356.602,169.783 C356.657,170.087 356.767,170.322 356.932,170.487 C357.19,170.741 357.597,170.868 358.151,170.868 C359.027,170.868 359.6,170.559 359.871,169.941 C360.032,169.577 360.106,168.928 360.093,167.993 C359.865,168.34 359.59,168.598 359.268,168.767 C358.946,168.936 358.521,169.021 357.992,169.021 C357.256,169.021 356.612,168.76 356.059,168.237 C355.507,167.714 355.231,166.85 355.231,165.644 C355.231,164.506 355.509,163.617 356.066,162.978 C356.622,162.339 357.294,162.019 358.081,162.019 C358.614,162.019 359.08,162.151 359.478,162.413 M359.617,163.638 C359.27,163.232 358.828,163.029 358.291,163.029 C357.486,163.029 356.936,163.405 356.64,164.159 C356.484,164.561 356.405,165.087 356.405,165.739 C356.405,166.505 356.561,167.088 356.872,167.488 C357.183,167.888 357.601,168.088 358.125,168.088 C358.946,168.088 359.524,167.717 359.858,166.977 C360.045,166.558 360.138,166.069 360.138,165.511 C360.138,164.668 359.964,164.044 359.617,163.638 M367.134,162.327 C367.587,162.554 367.932,162.847 368.169,163.206 C368.397,163.549 368.55,163.949 368.626,164.406 C368.694,164.719 368.728,165.219 368.728,165.904 L363.745,165.904 C363.766,166.594 363.929,167.147 364.233,167.564 C364.538,167.981 365.01,168.189 365.649,168.189 C366.246,168.189 366.722,167.993 367.077,167.599 C367.28,167.37 367.424,167.106 367.509,166.806 L368.632,166.806 C368.603,167.055 368.504,167.333 368.337,167.64 C368.17,167.947 367.983,168.198 367.775,168.392 C367.428,168.731 366.999,168.959 366.487,169.078 C366.212,169.146 365.901,169.18 365.554,169.18 C364.707,169.18 363.99,168.872 363.402,168.256 C362.814,167.64 362.52,166.778 362.52,165.669 C362.52,164.577 362.816,163.691 363.408,163.01 C364.001,162.328 364.775,161.988 365.731,161.988 C366.214,161.988 366.681,162.101 367.134,162.327 M367.553,164.996 C367.507,164.501 367.399,164.106 367.229,163.809 C366.916,163.259 366.394,162.984 365.662,162.984 C365.137,162.984 364.697,163.174 364.341,163.552 C363.986,163.931 363.798,164.412 363.776,164.996 L367.553,164.996 M371.306,167.447 C371.615,167.938 372.11,168.183 372.792,168.183 C373.32,168.183 373.755,167.955 374.096,167.501 C374.437,167.046 374.607,166.393 374.607,165.542 C374.607,164.683 374.431,164.047 374.08,163.635 C373.729,163.222 373.295,163.016 372.779,163.016 C372.203,163.016 371.737,163.236 371.379,163.676 C371.022,164.116 370.843,164.764 370.843,165.618 C370.843,166.346 370.997,166.956 371.306,167.447 M373.871,162.349 C374.074,162.476 374.304,162.699 374.562,163.016 L374.562,159.582 L375.661,159.582 L375.661,168.938 L374.632,168.938 L374.632,167.993 C374.366,168.411 374.05,168.714 373.687,168.9 C373.323,169.086 372.906,169.18 372.436,169.18 C371.679,169.18 371.023,168.861 370.468,168.224 C369.914,167.587 369.637,166.74 369.637,165.682 C369.637,164.692 369.89,163.834 370.395,163.108 C370.901,162.382 371.624,162.019 372.563,162.019 C373.083,162.019 373.519,162.129 373.871,162.349 M341.003,172.461 C340.339,173.752 339.907,174.702 339.708,175.311 C339.408,176.238 339.257,177.309 339.257,178.523 C339.257,179.751 339.429,180.872 339.771,181.888 C339.983,182.514 340.4,183.415 341.022,184.592 L340.254,184.592 C339.636,183.627 339.253,183.011 339.105,182.744 C338.957,182.478 338.796,182.116 338.623,181.659 C338.386,181.033 338.221,180.364 338.127,179.653 C338.081,179.285 338.058,178.934 338.058,178.599 C338.058,177.347 338.254,176.232 338.648,175.254 C338.898,174.632 339.418,173.701 340.209,172.461 L341.003,172.461 M342.322,175.172 L343.484,175.172 L343.484,181.938 L342.322,181.938 L342.322,175.172 M342.322,172.614 L343.484,172.614 L343.484,173.909 L342.322,173.909 L342.322,172.614 M345.197,175.14 L346.283,175.14 L346.283,176.105 C346.604,175.707 346.945,175.421 347.305,175.248 C347.664,175.074 348.064,174.988 348.504,174.988 C349.469,174.988 350.121,175.324 350.459,175.997 C350.646,176.365 350.739,176.892 350.739,177.577 L350.739,181.938 L349.577,181.938 L349.577,177.654 C349.577,177.239 349.516,176.905 349.393,176.651 C349.19,176.228 348.822,176.016 348.289,176.016 C348.018,176.016 347.796,176.043 347.622,176.098 C347.309,176.192 347.034,176.378 346.797,176.657 C346.606,176.881 346.483,177.113 346.426,177.352 C346.368,177.591 346.34,177.933 346.34,178.377 L346.34,181.938 L345.197,181.938 L345.197,175.14 M353.603,180.447 C353.912,180.938 354.407,181.183 355.088,181.183 C355.617,181.183 356.052,180.955 356.393,180.501 C356.733,180.046 356.904,179.393 356.904,178.542 C356.904,177.683 356.728,177.047 356.377,176.635 C356.026,176.222 355.592,176.016 355.076,176.016 C354.5,176.016 354.034,176.236 353.676,176.676 C353.318,177.116 353.14,177.764 353.14,178.618 C353.14,179.346 353.294,179.956 353.603,180.447 M356.167,175.349 C356.371,175.476 356.601,175.699 356.859,176.016 L356.859,172.582 L357.958,172.582 L357.958,181.938 L356.929,181.938 L356.929,180.993 C356.663,181.411 356.347,181.714 355.983,181.9 C355.619,182.086 355.203,182.18 354.733,182.18 C353.975,182.18 353.319,181.861 352.765,181.224 C352.211,180.587 351.934,179.74 351.934,178.682 C351.934,177.692 352.186,176.834 352.692,176.108 C353.198,175.382 353.92,175.019 354.86,175.019 C355.38,175.019 355.816,175.129 356.167,175.349 M363.869,175.327 C364.321,175.554 364.666,175.847 364.903,176.206 C365.132,176.549 365.284,176.949 365.36,177.406 C365.428,177.719 365.462,178.219 365.462,178.904 L360.479,178.904 C360.5,179.594 360.663,180.147 360.968,180.564 C361.272,180.981 361.744,181.189 362.383,181.189 C362.98,181.189 363.456,180.993 363.812,180.599 C364.015,180.37 364.159,180.106 364.243,179.806 L365.367,179.806 C365.337,180.055 365.239,180.333 365.072,180.64 C364.904,180.947 364.717,181.198 364.51,181.392 C364.163,181.731 363.733,181.959 363.221,182.078 C362.946,182.146 362.635,182.18 362.288,182.18 C361.442,182.18 360.724,181.872 360.136,181.256 C359.548,180.64 359.254,179.778 359.254,178.669 C359.254,177.577 359.55,176.691 360.143,176.01 C360.735,175.328 361.509,174.988 362.466,174.988 C362.948,174.988 363.416,175.101 363.869,175.327 M364.288,177.996 C364.241,177.501 364.133,177.106 363.964,176.809 C363.651,176.259 363.128,175.984 362.396,175.984 C361.871,175.984 361.431,176.174 361.076,176.552 C360.72,176.931 360.532,177.412 360.511,177.996 L364.288,177.996 M366.206,175.14 L367.685,175.14 L369.247,177.533 L370.827,175.14 L372.217,175.172 L369.926,178.453 L372.319,181.938 L370.859,181.938 L369.17,179.387 L367.533,181.938 L366.085,181.938 L368.479,178.453 L366.206,175.14 M372.966,184.592 C373.639,183.28 374.073,182.323 374.268,181.723 C374.564,180.813 374.712,179.746 374.712,178.523 C374.712,177.3 374.541,176.181 374.198,175.165 C373.986,174.539 373.569,173.638 372.947,172.461 L373.715,172.461 C374.367,173.502 374.762,174.144 374.899,174.388 C375.037,174.631 375.186,174.966 375.347,175.394 C375.55,175.923 375.695,176.445 375.781,176.962 C375.868,177.478 375.912,177.975 375.912,178.453 C375.912,179.706 375.713,180.823 375.315,181.805 C375.065,182.436 374.547,183.364 373.76,184.592 L372.966,184.592 Z" style="stroke:none;fill-rule:nonzero;fill:#000000;fill-opacity:1;"/>
        </g>
    </g>
</svg>
